<svg xmlns="http://www.w3.org/2000/svg" xmlns:xlink="http://www.w3.org/1999/xlink" id="body_1" preserveAspectRatio="xMinYMin meet" viewBox="0 0 2548 3708"><defs><clipPath id="1"><path d="M0 2781L0 0L0 0L1911 0L1911 0L1911 2781L1911 2781L0 2781z" /></clipPath><clipPath id="2"><path d="M0 2780.97L1911 2780.97L1911 2780.97L1911 -0.0300293L1911 -0.0300293L0 -0.0300293z" /></clipPath><clipPath id="3"><path d="M0 -0.0300293L1911 -0.0300293L1911 -0.0300293L1911 2780.97L1911 2780.97L0 2780.97z" /></clipPath></defs><g transform="matrix(1.333333 0 0 1.333333 0 0)"><g><g clip-path="url(#1)"><g clip-path="url(#2)"><g clip-path="url(#3)"><g transform="matrix(1 0 0 0.9999999 2.3E-05 -0.02978516)"><g transform="matrix(1 0 0 1 0 0)"><image x="0" y="0" xlink:href="img_01.png" width="1911" height="2772" /></g></g><g transform="matrix(1 0 0 1 2.3E-05 2771.97)"><g transform="matrix(1 0 0 1 0 0)"><image x="0" y="0" xlink:href="img_02.png" width="1911" height="9" /></g></g></g></g></g></g></g></svg>