<svg xmlns="http://www.w3.org/2000/svg" xmlns:xlink="http://www.w3.org/1999/xlink" id="body_40" preserveAspectRatio="xMinYMin meet" viewBox="0 0 2572 3695"><defs><clipPath id="1"><path d="M0 2771L0 0L0 0L1929 0L1929 0L1929 2771L1929 2771L0 2771z" /></clipPath><clipPath id="2"><path d="M0.006958 2771L1928.993 2771L1928.993 2771L1928.993 0.02001953L1928.993 0.02001953L0.006958 0.02001953z" /></clipPath><clipPath id="3"><path d="M0 0.02001953L1929 0.02001953L1929 0.02001953L1929 2771L1929 2771L0 2771z" /></clipPath></defs><g transform="matrix(1.333333 0 0 1.333333 0 0)"><g><g clip-path="url(#1)"><g clip-path="url(#2)"><g clip-path="url(#3)"><g transform="matrix(0.9999929 0 0 0.9999928 0.006937 0.02026367)"><g transform="matrix(1 0 0 1 0 0)"><image x="0" y="0" xlink:href="img_93.png" width="1929" height="2751" /></g></g><g transform="matrix(0.9999928 0 0 0.9999928 0.006937 2751)"><g transform="matrix(1 0 0 1 0 0)"><image x="0" y="0" xlink:href="img_21.png" width="1929" height="20" /></g></g></g></g></g></g></g></svg>