<svg xmlns="http://www.w3.org/2000/svg" xmlns:xlink="http://www.w3.org/1999/xlink" id="body_36" preserveAspectRatio="xMinYMin meet" viewBox="0 0 2567 3692"><defs><clipPath id="1"><path d="M0 2769L0 0L0 0L1925 0L1925 0L1925 2769L1925 2769L0 2769z" /></clipPath><clipPath id="2"><path d="M0.03009 2768.956L1925.01 2768.956L1925.01 2768.956L1925.01 -0.01538086L1925.01 -0.01538086L0.03009 -0.01538086z" /></clipPath><clipPath id="3"><path d="M0.030029 -0.0300293L1925.01 -0.0300293L1925.01 -0.0300293L1925.01 2768.97L1925.01 2768.97L0.030029 2768.97z" /></clipPath></defs><g transform="matrix(1.333333 0 0 1.333333 0 0)"><g><g clip-path="url(#1)"><g clip-path="url(#2)"><g clip-path="url(#3)"><g transform="matrix(0.9999896 0 0 0.9999896 0.030072 -0.01538086)"><g transform="matrix(1 0 0 1 0 0)"><image x="0" y="0" xlink:href="img_85.png" width="1925" height="2751" /></g></g><g transform="matrix(0.9999896 0 0 0.9999895 0.030072 2750.956)"><g transform="matrix(1 0 0 1 0 0)"><image x="0" y="0" xlink:href="img_83.png" width="1925" height="18" /></g></g></g></g></g></g></g></svg>