<svg xmlns="http://www.w3.org/2000/svg" xmlns:xlink="http://www.w3.org/1999/xlink" id="body_11" preserveAspectRatio="xMinYMin meet" viewBox="0 0 2569 3692"><defs><clipPath id="1"><path d="M0 2769L0 0L0 0L1927 0L1927 0L1927 2769L1927 2769L0 2769z" /></clipPath><clipPath id="2"><path d="M0.039978 2768.97L1927.04 2768.97L1927.04 2768.97L1927.04 -0.0300293L1927.04 -0.0300293L0.039978 -0.0300293z" /></clipPath><clipPath id="3"><path d="M0.029968 -0.0300293L1927.05 -0.0300293L1927.05 -0.0300293L1927.05 2768.97L1927.05 2768.97L0.029968 2768.97z" /></clipPath></defs><g transform="matrix(1.333333 0 0 1.333333 0 0)"><g><g clip-path="url(#1)"><g clip-path="url(#2)"><g clip-path="url(#3)"><g transform="matrix(1 0 0 0.9999999 0.039991 -0.02978516)"><g transform="matrix(1 0 0 1 0 0)"><image x="0" y="0" xlink:href="img_25.png" width="1927" height="2751" /></g></g><g transform="matrix(1 0 0 1 0.039991 2750.97)"><g transform="matrix(1 0 0 1 0 0)"><image x="0" y="0" xlink:href="img_26.png" width="1927" height="18" /></g></g></g></g></g></g></g></svg>