<svg xmlns="http://www.w3.org/2000/svg" xmlns:xlink="http://www.w3.org/1999/xlink" id="body_56" preserveAspectRatio="xMinYMin meet" viewBox="0 0 2567 3695"><defs><clipPath id="1"><path d="M0 2771L0 0L0 0L1925 0L1925 0L1925 2771L1925 2771L0 2771z" /></clipPath><clipPath id="2"><path d="M0.03009 2770.996L1925.01 2770.996L1925.01 2770.996L1925.01 0.0246582L1925.01 0.0246582L0.03009 0.0246582z" /></clipPath><clipPath id="3"><path d="M0.030029 0.02001953L1925.01 0.02001953L1925.01 0.02001953L1925.01 2771L1925.01 2771L0.030029 2771z" /></clipPath></defs><g transform="matrix(1.333333 0 0 1.333333 0 0)"><g><g clip-path="url(#1)"><g clip-path="url(#2)"><g clip-path="url(#3)"><g transform="matrix(0.9999896 0 0 0.9999896 0.030072 0.0246582)"><g transform="matrix(1 0 0 1 0 0)"><image x="0" y="0" xlink:href="img_129.png" width="1925" height="2751" /></g></g><g transform="matrix(0.9999896 0 0 0.9999895 0.030072 2750.996)"><g transform="matrix(1 0 0 1 0 0)"><image x="0" y="0" xlink:href="img_69.png" width="1925" height="20" /></g></g></g></g></g></g></g></svg>