<svg xmlns="http://www.w3.org/2000/svg" xmlns:xlink="http://www.w3.org/1999/xlink" id="body_24" preserveAspectRatio="xMinYMin meet" viewBox="0 0 2569 3695"><defs><clipPath id="1"><path d="M0 2771L0 0L0 0L1927 0L1927 0L1927 2771L1927 2771L0 2771z" /></clipPath><clipPath id="2"><path d="M0.046936 2771L1927.033 2771L1927.033 2771L1927.033 0.02001953L1927.033 0.02001953L0.046936 0.02001953z" /></clipPath><clipPath id="3"><path d="M0.029968 0.02001953L1927.05 0.02001953L1927.05 0.02001953L1927.05 2771L1927.05 2771L0.029968 2771z" /></clipPath></defs><g transform="matrix(1.333333 0 0 1.333333 0 0)"><g><g clip-path="url(#1)"><g clip-path="url(#2)"><g clip-path="url(#3)"><g transform="matrix(0.9999927 0 0 0.9999927 0.046964 0.02050781)"><g transform="matrix(1 0 0 1 0 0)"><image x="0" y="0" xlink:href="img_57.png" width="1927" height="2751" /></g></g><g transform="matrix(0.9999927 0 0 0.9999928 0.046964 2751)"><g transform="matrix(1 0 0 1 0 0)"><image x="0" y="0" xlink:href="img_58.png" width="1927" height="20" /></g></g></g></g></g></g></g></svg>