<svg xmlns="http://www.w3.org/2000/svg" xmlns:xlink="http://www.w3.org/1999/xlink" id="body_14" preserveAspectRatio="xMinYMin meet" viewBox="0 0 2572 3697"><defs><clipPath id="1"><path d="M0 2773L0 0L0 0L1929 0L1929 0L1929 2773L1929 2773L0 2773z" /></clipPath><clipPath id="2"><path d="M-0.000122 2772.99L1929 2772.99L1929 2772.99L1929 -0.009765625L1929 -0.009765625L-0.000122 -0.009765625z" /></clipPath><clipPath id="3"><path d="M0 -0.02001953L1929 -0.02001953L1929 -0.02001953L1929 2773L1929 2773L0 2773z" /></clipPath></defs><g transform="matrix(1.333333 0 0 1.333333 0 0)"><g><g clip-path="url(#1)"><g clip-path="url(#2)"><g clip-path="url(#3)"><g transform="matrix(1 0 0 1 -9.4E-05 -0.01000977)"><g transform="matrix(1 0 0 1 0 0)"><image x="0" y="0" xlink:href="img_34.png" width="1929" height="2751" /></g></g><g transform="matrix(1 0 0 1 -9.4E-05 2750.99)"><g transform="matrix(1 0 0 1 0 0)"><image x="0" y="0" xlink:href="img_35.png" width="1929" height="22" /></g></g></g></g></g></g></g></svg>