<svg xmlns="http://www.w3.org/2000/svg" xmlns:xlink="http://www.w3.org/1999/xlink" id="body_80" preserveAspectRatio="xMinYMin meet" viewBox="0 0 2564 3692"><defs><clipPath id="1"><path d="M0 2769L0 0L0 0L1923 0L1923 0L1923 2769L1923 2769L0 2769z" /></clipPath><clipPath id="2"><path d="M0 2768.97L1923 2768.97L1923 2768.97L1923 -0.0300293L1923 -0.0300293L0 -0.0300293z" /></clipPath><clipPath id="3"><path d="M0 -0.0300293L1923 -0.0300293L1923 -0.0300293L1923 2768.97L1923 2768.97L0 2768.97z" /></clipPath></defs><g transform="matrix(1.333333 0 0 1.333333 0 0)"><g><g clip-path="url(#1)"><g clip-path="url(#2)"><g clip-path="url(#3)"><g transform="matrix(0.9999999 0 0 0.9999999 2.3E-05 -0.02978516)"><g transform="matrix(1 0 0 1 0 0)"><image x="0" y="0" xlink:href="img_180.png" width="1923" height="2751" /></g></g><g transform="matrix(0.9999999 0 0 1 2.3E-05 2750.97)"><g transform="matrix(1 0 0 1 0 0)"><image x="0" y="0" xlink:href="img_170.png" width="1923" height="18" /></g></g></g></g></g></g></g></svg>