<svg xmlns="http://www.w3.org/2000/svg" xmlns:xlink="http://www.w3.org/1999/xlink" id="body_4" preserveAspectRatio="xMinYMin meet" viewBox="0 0 2575 3695"><defs><clipPath id="1"><path d="M0 2771L0 0L0 0L1931 0L1931 0L1931 2771L1931 2771L0 2771z" /></clipPath><clipPath id="2"><path d="M0.030151 2770.996L1931.01 2770.996L1931.01 2770.996L1931.01 0.0246582L1931.01 0.0246582L0.030151 0.0246582z" /></clipPath><clipPath id="3"><path d="M0.030029 0.02001953L1931.01 0.02001953L1931.01 0.02001953L1931.01 2771L1931.01 2771L0.030029 2771z" /></clipPath></defs><g transform="matrix(1.333333 0 0 1.333333 0 0)"><g><g clip-path="url(#1)"><g clip-path="url(#2)"><g clip-path="url(#3)"><g transform="matrix(0.9999896 0 0 0.9999896 0.03013 0.0246582)"><g transform="matrix(1 0 0 1 0 0)"><image x="0" y="0" xlink:href="img_10.png" width="1931" height="2751" /></g></g><g transform="matrix(0.9999896 0 0 0.9999895 0.03013 2750.996)"><g transform="matrix(1 0 0 1 0 0)"><image x="0" y="0" xlink:href="img_08.png" width="1931" height="20" /></g></g></g></g></g></g></g></svg>