<svg xmlns="http://www.w3.org/2000/svg" xmlns:xlink="http://www.w3.org/1999/xlink" id="body_22" preserveAspectRatio="xMinYMin meet" viewBox="0 0 2569 3697"><defs><clipPath id="1"><path d="M0 2773L0 0L0 0L1927 0L1927 0L1927 2773L1927 2773L0 2773z" /></clipPath><clipPath id="2"><path d="M0.032959 2773L1927.047 2773L1927.047 2773L1927.047 -0.01977539L1927.047 -0.01977539L0.032959 -0.01977539z" /></clipPath><clipPath id="3"><path d="M0.029968 -0.02001953L1927.05 -0.02001953L1927.05 -0.02001953L1927.05 2773L1927.05 2773L0.029968 2773z" /></clipPath></defs><g transform="matrix(1.333333 0 0 1.333333 0 0)"><g><g clip-path="url(#1)"><g clip-path="url(#2)"><g clip-path="url(#3)"><g transform="matrix(1.000007 0 0 1.000007 0.03296 -0.01928711)"><g transform="matrix(1 0 0 1 0 0)"><image x="0" y="0" xlink:href="img_52.png" width="1927" height="2751" /></g></g><g transform="matrix(1.000007 0 0 1.000007 0.03296 2751)"><g transform="matrix(1 0 0 1 0 0)"><image x="0" y="0" xlink:href="img_05.png" width="1927" height="22" /></g></g></g></g></g></g></g></svg>