<svg xmlns="http://www.w3.org/2000/svg" xmlns:xlink="http://www.w3.org/1999/xlink" id="body_3" preserveAspectRatio="xMinYMin meet" viewBox="0 0 791 1124"><defs><clipPath id="1"><path d="M0 843L0 -0.5999756L0 -0.5999756L593.28 -0.5999756L593.28 -0.5999756L593.28 843L593.28 843L0 843z" /></clipPath><clipPath id="2"><path d="M178.1265 608.1566L483.5969 302.6862L483.5969 302.6862L415.154 234.2433L415.154 234.2433L109.6836 539.7137z" /></clipPath><clipPath id="3"><path d="M72 807L144 807L144 807L144 799.032L144 799.032L72 799.032z" /></clipPath><clipPath id="4"><path d="M465.28 807L521.28 807L521.28 807L521.28 799.032L521.28 799.032L465.28 799.032z" /></clipPath></defs><g transform="matrix(1.333333 0 0 1.333333 0 0)"><g><g clip-path="url(#1)"><g transform="matrix(0.24 0 0 0.24 0 -0.5999756)"><g transform="matrix(1 0 0 1 0 0)"><image x="0" y="0" xlink:href="img_05.png" width="2472" height="3515" /></g></g><g clip-path="url(#2)"><path transform="matrix(1 0 0 -1 0 843)" d="M136.5818 311.3899L146.1277 320.9359L146.1277 320.9359L155.0108 312.0529L155.0108 312.0529L145.4648 302.5069zM134.0627 310.1967L124.9145 301.0485L124.9145 301.0485L121.7325 299.9878C 123.5887 298.3084 125.931 296.0545 128.7594 293.2261C 131.5878 290.3977 133.3998 288.5415 134.1953 287.6576C 134.9908 286.7737 135.3885 286.2434 135.3885 286.0667L135.3885 286.0667L136.7144 288.9835L136.7144 288.9835L134.9908 290.707L134.9908 290.707L144.2716 299.9878C 150.9891 293.2703 155.4527 288.7183 157.6624 286.3318L157.6624 286.3318L158.9883 289.2486C 157.2205 290.8396 152.9337 295.0381 146.1277 301.844L146.1277 301.844L155.6737 311.3899L155.6737 311.3899L158.1927 308.8708L158.1927 308.8708L159.386 311.6551C 158.237 312.6274 157.1763 313.5996 156.204 314.5719L156.204 314.5719L148.6468 322.1291L148.6468 322.1291L148.7794 324.1179L148.7794 324.1179L144.9345 323.7201L144.9345 323.7201L145.1997 321.3336L145.1997 321.3336L135.9189 312.0529L135.9189 312.0529L130.6156 317.3561L130.6156 317.3561L130.6156 319.2123L130.6156 319.2123L126.3729 317.6213C 128.2291 315.9419 130.7923 313.4671 134.0627 310.1967zM125.4448 300.253L134.7256 309.5338L134.7256 309.5338L143.6087 300.6507L143.6087 300.6507L134.3279 291.37z" stroke="none" fill="#4055FF" fill-rule="evenodd" fill-opacity="0.2980392" /><path transform="matrix(1 0 0 -1 0 843)" d="M158.9883 338.3042L161.2422 338.4368L161.2422 338.4368L162.0377 340.0278L162.0377 340.0278L167.341 345.3311L167.341 345.3311L173.7049 338.9671L173.7049 338.9671L167.0758 332.338L167.0758 332.338L169.3297 332.4706L169.3297 332.4706L170.2578 334.1942L170.2578 334.1942L174.3678 338.3042L174.3678 338.3042L183.2509 329.4212L183.2509 329.4212L174.7656 320.9359L174.7656 320.9359L176.8869 320.9359C 177.4172 321.9966 178.1685 323.013 179.1408 323.9853L179.1408 323.9853L194.7856 339.63L194.7856 339.63L190.0126 339.63L190.0126 339.63L190.1452 336.3155L190.1452 336.3155L185.107 331.2773L185.107 331.2773L176.224 340.1604L176.224 340.1604L183.7812 347.7176L183.7812 347.7176L179.2734 347.7176L179.2734 347.7176L179.406 344.6682L179.406 344.6682L175.5611 340.8233L175.5611 340.8233L169.1971 347.1873L169.1971 347.1873L177.9476 355.9377L177.9476 355.9377L173.4398 355.9377L173.4398 355.9377L173.5723 352.8883zM178.8757 340.4255L178.8756 339.63C 182.2344 339.63 184.7314 339.2544 186.3666 338.5031C 188.0018 337.7518 188.5984 338.1716 188.1564 339.7626C 187.7145 341.3536 186.7643 342.127 185.3059 342.0828C 183.8475 342.0386 181.7041 341.4862 178.8757 340.4255zM180.3341 309.799L181.3947 312.7158L181.3947 312.7158L178.8757 315.2348L178.8757 315.2348L199.6911 336.0503L199.6911 336.0503L202.3428 333.3987L202.3428 333.3987L203.6686 336.0503C 201.7241 337.8181 199.8679 339.5858 198.1001 341.3536L198.1001 341.3536L177.1521 362.3017L177.1521 362.3017L177.2847 364.0252L177.2847 364.0252L173.8375 364.0252L173.8375 364.0252L173.8375 361.6388L173.8375 361.6388L153.1546 340.9559L153.1546 340.9559L149.9726 340.1604C 152.2707 338.039 154.2595 336.1387 155.9388 334.4593L155.9388 334.4593L174.7656 315.6326C 176.6217 313.7764 178.4779 311.8319 180.3341 309.799zM153.8175 340.2929L174.633 361.1084L174.633 361.1084L199.0282 336.7132L199.0282 336.7132L178.2127 315.8977z" stroke="none" fill="#4055FF" fill-rule="evenodd" fill-opacity="0.2980392" /><path transform="matrix(1 0 0 -1 0 843)" d="M205.6573 364.2904L217.4572 376.0903L217.4572 376.0903L220.9044 372.6431L220.9044 372.6431L209.1045 360.8433zM193.8575 358.059C 198.6305 370.2566 198.9398 376.6648 198.2327 383.3823C 210.7839 382.1449 216.4849 384.3988 221.4347 387.2272C 220.6392 388.0227 220.9044 389.5253 222.2302 391.735L222.2302 391.735L221.6998 392.2654C 215.6894 386.6085 208.3532 383.6033 198.1001 384.3104L198.1001 384.3104L199.0282 386.5643L199.0282 386.5643L194.1227 385.3711C 196.0672 381.3052 196.7301 369.5053 193.1946 358.1916zM199.2934 378.3442L199.1608 377.6813C 201.9892 377.3277 204.1768 376.8195 205.7236 376.1566C 207.2704 375.4937 207.8671 375.8693 207.5135 377.2835C 207.16 378.6977 206.4529 379.449 205.3922 379.5374C 204.3315 379.6258 202.2986 379.2281 199.2934 378.3442zM222.6279 362.1691L217.4572 352.4905L217.4572 352.4905L209.7674 360.1804L209.7674 360.1804L221.5673 371.9802L221.5673 371.9802L222.7605 370.787L222.7605 370.787L223.556 373.9689C 223.2025 374.1457 220.595 376.6648 215.7336 381.5262L215.7336 381.5262L216.264 383.3823L216.264 383.3823L212.1539 383.2497L212.1539 383.2497L212.4191 380.5981L212.4191 380.5981L201.017 369.196L201.017 369.196L197.7024 368.2679C 199.0282 367.1188 200.4866 365.7488 202.0776 364.1578L202.0776 364.1578L214.0101 352.2254C 215.2475 350.9879 215.822 350.0599 215.7336 349.4412L215.7336 349.4412L219.5785 348.5131C 219.1366 349.6621 220.4182 354.1257 223.4234 361.9039zM214.01 361.5062L214.1426 360.8433C 218.2085 362.2575 222.0976 363.4507 225.8099 364.423C 229.5222 365.3953 232.439 365.8814 234.5604 365.8814C 236.6817 365.8814 237.2783 366.478 236.3502 367.6713C 235.4221 368.8645 234.251 369.3286 232.8368 369.0634C 231.4226 368.7982 228.9035 367.9143 225.2796 366.4117C 226.517 370.1241 227.2683 373.4386 228.8593 375.0296L228.8593 375.0296L224.4841 374.897C 224.926 373.2177 224.8818 370.2566 224.3515 366.014C 220.7276 364.5114 217.2804 363.0088 214.01 361.5062zM201.5473 368.4005L213.3471 380.2003L213.3471 380.2003L216.7943 376.7532L216.7943 376.7532L204.9944 364.9533z" stroke="none" fill="#4055FF" fill-rule="evenodd" fill-opacity="0.2980392" /><path transform="matrix(1 0 0 -1 0 843)" d="M260.2814 415.2021L260.414 416.9257L260.414 416.9257L256.7017 416.6606L256.7017 416.6606L256.9668 414.274L256.9668 414.274L250.3377 407.6449L250.3377 407.6449L247.0231 406.982C 251.2658 403.0929 257.7181 396.6406 261.6072 392.3979L261.6072 392.3979L262.8005 395.1822L262.8005 395.1822L260.1488 397.8338L260.1488 397.8338L267.0431 404.7281L267.0431 404.7281L270.0925 401.6787L270.0925 401.6787L271.2858 404.463C 270.3135 405.2585 266.6454 408.8382 260.2814 415.2021zM251.0006 406.982L257.8949 413.8763L257.8949 413.8763L266.3802 405.391L266.3802 405.391L259.4859 398.4967zM240.394 424.7481L240.6592 426.6042L240.6592 426.6042L236.8143 426.2065L236.8143 426.2065L237.0794 423.82L237.0794 423.82L226.4728 413.2134L226.4728 413.2134L223.1583 412.2853C 227.0473 408.7498 231.2016 404.5955 236.6817 398.7619L236.6817 398.7619L238.0075 401.4135L238.0075 401.4135L236.1514 403.2697L236.1514 403.2697L247.1557 414.2741L247.1557 414.2741L249.277 412.1527L249.277 412.1527L250.4703 414.937C 248.0838 417.1467 244.725 420.4171 240.394 424.7481zM227.0031 412.4179L238.0075 423.4223L238.0075 423.4223L246.4928 414.937L246.4928 414.937L235.4884 403.9326zM245.4321 400.0877L245.6973 401.9439L245.6973 401.9439L241.8524 401.5461L241.8524 401.5461L241.985 399.2922L241.985 399.2922L235.7536 393.0609L235.7536 393.0609L232.5716 392.2654C 236.6375 388.553 243.1782 382.0123 247.4209 377.4161L247.4209 377.4161L248.6141 380.2003L248.6141 380.2003L245.5647 383.2497L245.5647 383.2497L252.0613 389.7463L252.0613 389.7463L254.9781 386.8295L254.9781 386.8295L256.0388 389.7463C 253.8291 391.7792 250.2935 395.2264 245.4321 400.0877zM236.4165 392.3979L242.9131 398.8945L242.9131 398.8945L251.3984 390.4092L251.3984 390.4092L244.9018 383.9127z" stroke="none" fill="#4055FF" fill-rule="evenodd" fill-opacity="0.2980392" /><path transform="matrix(1 0 0 -1 0 843)" d="M269.6948 442.9119C 271.0206 441.0558 272.3022 438.6251 273.5397 435.6199L273.5397 435.6199L263.1982 425.2784L263.1982 425.2784L265.3195 425.2784L265.3195 425.2784L266.2476 427.002L266.2476 427.002L273.9374 434.6918C 275.6168 430.8911 276.7659 427.6207 277.3846 424.8807C 280.4781 426.9136 284.1021 428.9465 288.2563 430.9795C 288.3447 424.8807 285.6047 417.898 280.0362 410.0314L280.0362 410.0314L280.6991 409.6337C 286.8863 416.8815 290.5986 424.5713 290.7754 432.1727C 295.9019 434.4708 300.0341 435.7303 303.1719 435.9513C 306.3097 436.1723 307.3703 436.9236 306.3539 438.2052C 305.3374 439.4869 303.6359 439.7741 301.2495 439.067C 298.863 438.3599 295.2832 436.7689 290.5103 434.2941C 289.8915 438.0948 288.6099 442.47 286.6653 447.4197L286.6653 447.4197L293.8248 454.5792L293.8248 454.5792L289.317 454.5792L289.317 454.5792L289.317 451.3972L289.317 451.3972L275.5284 437.6086L275.5284 437.6086L273.8048 441.9838L273.8048 441.9838L274.07 444.1052zM275.9261 436.6805L284.4114 445.1658C 286.2676 440.658 287.4608 436.548 287.9912 432.8356C 286.0466 431.775 283.0856 429.963 279.1082 427.3997C 278.2242 430.405 277.1636 433.4986 275.9261 436.6805zM262.005 452.1927C 264.5682 451.9276 266.6675 451.2867 268.3027 450.2703C 269.9378 449.2538 270.6671 449.541 270.4903 451.132C 270.3135 452.723 269.4959 453.5848 268.0375 453.7174C 266.5791 453.85 264.524 453.5627 261.8724 452.8556zM283.3508 453.386L284.0137 453.7837C 283.395 457.7612 283.7043 460.457 284.9418 461.8712L284.9418 461.8712L280.1688 461.8712L280.1688 461.8712L280.3014 458.8218L280.3014 458.8218L260.414 438.9344L260.414 438.9344L258.823 440.5255L258.823 440.5255L258.1601 439.8625C 259.8395 437.6528 260.5908 435.6641 260.414 433.8963C 260.2372 432.1285 260.7012 431.4435 261.8061 431.8413C 262.9109 432.239 263.5076 433.0124 263.5959 434.1615C 263.6843 435.3105 262.8447 436.6805 261.0769 438.2715L261.0769 438.2715L281.2295 458.4241z" stroke="none" fill="#4055FF" fill-rule="evenodd" fill-opacity="0.2980392" /><path transform="matrix(1 0 0 -1 0 843)" d="M300.0562 485.4709C 305.8015 483.9684 311.1489 483.4822 316.0987 484.0125L316.0987 484.0125L315.9661 481.2283L315.9661 481.2283L301.5146 466.7768C 301.9565 473.4059 301.4704 479.6373 300.0562 485.4709zM295.8135 487.062C 298.4652 481.9354 301.0727 471.2846 298.0674 456.9657L298.0674 456.9657L298.7303 456.8331C 300.233 460.6338 301.1611 463.86 301.5146 466.5116L301.5146 466.5116L303.9011 466.5117L303.9011 466.5117L304.4314 468.3678L304.4314 468.3678L310.1325 474.0688L310.1325 474.0688L316.7616 467.4397L316.7616 467.4397L307.6134 458.2915L307.6134 458.2915L309.7347 458.2915C 310.2651 459.3522 311.0164 460.3687 311.9886 461.3409L311.9886 461.3409L317.4245 466.7768L317.4245 466.7768L325.1143 459.087L325.1143 459.087L312.519 446.4916L312.519 446.4916L314.6403 446.4916C 315.1706 447.5523 315.9219 448.5688 316.8942 449.5411L316.8942 449.5411L341.422 474.0688L341.422 474.0688L336.1187 474.0688L336.1187 474.0688L336.3839 470.3565L336.3839 470.3565L326.9705 460.9432L326.9705 460.9432L319.2807 468.633L319.2807 468.633L329.2244 478.5767L329.2244 478.5767L324.584 478.4441L324.584 478.4441L324.584 475.2621L324.584 475.2621L318.6178 469.2959L318.6178 469.2959L311.9886 475.925L311.9886 475.925L320.0762 484.0125L320.0762 484.0125L317.4245 484.2777C 320.7833 484.808 323.6559 485.4709 326.0424 486.2664C 325.6005 487.2387 325.9098 488.6971 326.9705 490.6417L326.9705 490.6417L326.5728 491.0394C 316.1429 485.2058 305.5805 485.25 299.9236 486.6642L299.9236 486.6642L300.4539 488.5204z" stroke="none" fill="#4055FF" fill-rule="evenodd" fill-opacity="0.2980392" /><path transform="matrix(1 0 0 -1 0 843)" d="M347.7859 521.2682L348.5815 521.5334C 348.2279 526.1296 348.3163 528.6045 349.9073 530.5491L349.9073 530.5491L344.7366 530.4165L344.7366 530.4165L345.1343 527.6322L345.1343 527.6322L335.7209 518.2189C 334.837 521.2241 334.7045 522.9476 335.3232 523.3896L335.3232 523.3896L331.3457 522.0638C 333.467 518.5282 335.4557 512.9155 334.9254 506.0213L334.9254 506.0213L335.7209 506.0213C 336.87 509.2916 337.0026 513.0482 336.1187 517.2908L336.1187 517.2908L346.0624 527.2345zM339.3007 519.147C 343.5433 514.9043 344.3388 508.8939 337.4445 498.4641L337.4445 498.4641L338.1074 498.0663C 344.383 505.4025 346.2391 511.9433 343.6759 517.6885C 348.1837 515.3021 353.4428 515.1695 359.4532 517.2908C 358.7461 518.5282 359.2764 519.9424 361.0442 521.5334L361.0442 521.5334L360.6465 521.9312C 354.9012 517.7769 349.156 516.6279 343.4107 518.484C 342.8804 519.3679 342.792 520.1635 343.1456 520.8705zM320.3413 508.9381L320.6065 508.1426C 322.9046 508.6729 324.8712 508.7392 326.5064 508.3415C 328.1416 507.9437 328.8045 508.3415 328.4952 509.5347C 328.1858 510.728 327.4124 511.413 326.175 511.5897C 324.9376 511.7665 322.993 510.8826 320.3413 508.9381zM330.5502 515.6998C 330.5502 508.6287 330.3955 504.6733 330.0862 503.8336C 329.7768 502.994 329.4454 502.3973 329.0918 502.0438C 328.7383 501.6902 327.6334 501.0273 325.7772 500.0551L325.7772 500.0551L326.175 499.3922C 328.1195 500.276 329.5779 500.4528 330.5502 499.9225C 331.5225 499.3922 332.2959 498.3978 332.8704 496.9394C 333.4449 495.481 334.4835 494.9285 335.9861 495.2821C 337.4887 495.6356 337.5992 496.409 336.3176 497.6023C 335.0359 498.7955 334.0416 499.9225 333.3345 500.9831C 332.6273 502.0438 332.1854 503.6348 332.0086 505.7561C 331.8318 507.8774 331.5667 511.2362 331.2131 515.8324zM349.7747 487.99L350.7028 490.7743L350.7028 490.7743L342.2175 499.2596L342.2175 499.2596L355.2106 512.2527L355.2106 512.2527L363.6959 503.7674L363.6959 503.7674L364.4914 506.6842C 362.9888 508.01 360.6907 510.2197 357.5971 513.3133L357.5971 513.3133L358.1274 515.1694L358.1274 515.1694L354.0173 514.7717L354.0173 514.7717L354.2825 512.3853L354.2825 512.3853L341.9523 500.0551L341.9523 500.0551L338.9029 498.8618C 342.792 495.3263 345.7088 492.4095 349.7747 487.99zM348.9792 503.1044L350.9679 501.1157C 352.7357 498.9944 353.7964 496.7405 354.1499 494.354C 354.5035 491.9675 354.0836 489.2496 352.8904 486.2001C 351.6971 483.1508 350.305 480.3886 348.714 477.9138L348.714 477.9138L349.2444 477.6486C 352.0728 481.1841 354.1057 484.5429 355.3431 487.7249C 356.5806 490.9069 356.9562 493.669 356.4701 496.0113C 355.984 498.3536 355.0338 500.497 353.6196 502.4415L353.6196 502.4415L353.7522 504.4303zM358.1274 497.1382C 361.1326 498.906 363.7842 500.2318 366.0823 501.1157C 368.3804 501.9996 370.325 502.4415 371.916 502.4415C 373.507 502.4415 374.2141 502.9277 374.0374 503.9C 373.8605 504.8722 373.1313 505.3805 371.8497 505.4246C 370.5681 505.4688 368.8224 504.9164 366.6127 503.7674C 364.403 502.6183 361.3978 500.5854 357.5971 497.6686z" stroke="none" fill="#4055FF" fill-rule="evenodd" fill-opacity="0.2980392" /><path transform="matrix(1 0 0 -1 0 843)" d="M376.5564 549.5084L385.3068 558.2588L385.3068 558.2588L389.2843 554.2814L389.2843 554.2814L380.5339 545.5309zM381.1968 544.868L389.9472 553.6184L389.9472 553.6184L394.0573 549.5084L394.0573 549.5084L385.3068 540.7579zM387.4282 537.3108C 388.4005 535.4546 388.8866 530.4607 388.8866 522.3289L388.8866 522.3289L389.5495 522.1964C 390.9637 530.6816 390.4775 534.0846 391.5382 537.9737zM394.9854 543.5421C 399.228 543.3654 402.3658 542.7466 404.3987 541.686C 406.4316 540.6253 407.2935 540.8684 406.9841 542.4152C 406.6747 543.962 405.7688 544.9122 404.2662 545.2657C 402.7635 545.6193 399.6258 545.2657 394.8528 544.2051zM385.4395 536.913L386.7653 539.2995L386.7653 539.2995L385.9697 540.095L385.9697 540.095L389.4169 543.5422L389.4169 543.5422L397.9022 535.0569C 399.3164 533.6427 397.1067 532.2285 394.4551 530.2839L394.4551 530.2839L394.9854 529.7535C 397.5486 531.0794 399.5374 531.212 400.9516 530.1513C 402.3658 532.4494 402.1448 534.5266 400.2887 536.3827L400.2887 536.3827L391.2731 545.3983L391.2731 545.3983L394.7202 548.8455L394.7202 548.8455L395.9135 547.6522L395.9135 547.6522L397.1067 550.1713C 396.3112 550.79 393.1734 553.8394 387.6933 559.3195L387.6933 559.3195L388.2237 561.1757L388.2237 561.1757L384.5114 561.4408L384.5114 561.4408L384.5114 558.7892L384.5114 558.7892L378.5452 552.8229C 377.838 557.0656 377.7938 557.9053 378.6777 559.8498L378.6777 559.8498L375.2306 559.0543L375.2306 559.0543L384.6439 568.4677L384.6439 568.4677L379.6058 568.4677L379.6058 568.4677L379.6058 564.7554L379.6058 564.7554L366.0823 551.2319L366.0823 551.2319L362.3701 550.1713C 364.8449 548.0499 368.1816 544.8901 372.3801 540.6917C 376.5785 536.4932 379.65 532.5378 381.5945 528.8254C 383.5391 525.1132 384.5997 520.517 384.7765 515.0369L384.7765 515.0369L385.572 515.0369C 386.1907 520.6053 385.6604 525.3341 383.981 529.2232C 382.3016 533.1123 379.8931 536.6699 376.7552 539.8961C 373.6175 543.1223 370.1924 546.5916 366.4801 550.3039L366.4801 550.3039L374.5677 558.3914C 375.5399 557.0656 376.6006 554.9443 377.7496 552.0275L377.7496 552.0275L375.8935 550.1713L375.8935 550.1713L372.9767 549.3758C 377.3961 545.3099 381.3735 541.3325 385.4395 536.913zM366.8779 544.6028L366.2149 544.2051C 371.1647 532.7146 373.7722 526.3506 374.0374 525.1132C 374.3025 523.8757 374.2583 523.036 373.9047 522.5941C 373.5511 522.1522 372.4905 521.2241 370.7228 519.8099L370.7228 519.8099L371.2531 519.2795C 372.9324 520.2518 374.2804 520.76 375.2969 520.8042C 376.3134 520.8484 377.4624 519.6994 378.744 517.3571C 380.0256 515.0148 381.3735 514.1972 382.7878 514.9043C 384.202 515.6115 384.5776 516.2522 383.9147 516.8268C 383.2518 517.4012 382.1028 518.4619 380.4676 520.0087C 378.8324 521.5555 377.595 523.0581 376.7552 524.5165C 375.9156 525.975 372.6231 532.6704 366.8779 544.6028zM358.7903 532.0074L358.9229 531.3445C 362.1049 531.1678 364.4914 530.6816 366.0823 529.8861C 367.6733 529.0906 368.5352 529.1127 368.6677 529.9525C 368.8003 530.7921 368.3583 531.7202 367.3419 532.7367C 366.3254 533.7532 363.4749 533.5101 358.7903 532.0074zM354.1499 542.7467L354.2825 542.0837C 357.1993 541.8186 359.4532 541.2883 361.0442 540.4927C 362.6352 539.6973 363.4086 539.8961 363.3644 541.0894C 363.3202 542.2826 362.7015 543.1665 361.5082 543.741C 360.315 544.3156 357.8622 543.9841 354.1499 542.7467z" stroke="none" fill="#4055FF" fill-rule="evenodd" fill-opacity="0.2980392" /><path transform="matrix(1 0 0 -1 0 843)" d="M408.6414 573.6384C 407.5807 576.8204 406.2991 579.2511 406.1223 582.2563L406.1223 582.2563L402.0123 581.5934C 403.9568 578.7649 405.4152 576.2458 406.3875 574.0361C 403.8242 574.3013 401.2167 574.434 398.5651 574.4339L398.5651 574.4339L398.4326 573.771C 401.7029 573.3291 404.6639 572.6661 407.3156 571.7822C 409.6136 567.0093 411.1605 562.5457 411.956 558.3914L411.956 558.3914L412.7515 558.6566C 412.2211 562.7225 411.2488 566.8767 409.8347 571.1193C 411.7792 570.4122 413.569 569.5504 415.2042 568.534C 416.8394 567.5175 417.7233 567.4291 417.8559 568.2688C 417.9885 569.1085 417.8117 569.8598 417.3256 570.5227C 416.8394 571.1857 416.0218 571.738 414.8728 572.18C 413.7238 572.6219 411.6466 573.1081 408.6414 573.6384zM418.9828 581.5934C 417.2151 585.836 415.6683 589.5042 415.6683 591.2719L415.6683 591.2719L411.5582 590.3438C 413.5027 587.6921 415.1821 584.7754 416.5964 581.5934C 413.8563 581.8585 410.9836 581.9027 407.9785 581.726L407.9785 581.726L407.8459 581.063C 411.0279 580.7095 414.2098 580.1792 417.3918 579.472C 419.3364 574.8759 420.5739 570.1913 421.1041 565.4183L421.1041 565.4183L421.8997 565.4183C 421.988 569.3958 421.3251 573.9478 419.9109 579.0743C 422.6509 578.2788 424.8386 577.417 426.4738 576.489C 428.1089 575.5609 428.9486 575.5167 428.9928 576.3563C 429.037 577.196 428.8381 578.0137 428.3962 578.8091C 427.9543 579.6046 427.1588 580.1792 426.0097 580.5327C 424.8607 580.8862 422.5184 581.2399 418.9828 581.5934zM431.0479 567.6722C 434.495 569.882 436.8373 570.368 438.0748 569.1306C 439.3122 572.4894 439.9751 574.1246 437.677 576.4227L437.677 576.4227L415.2705 598.8291L415.2705 598.8291L415.5357 600.9504L415.5357 600.9504L411.4256 600.5527L411.4256 600.5527L411.8234 597.5033L411.8234 597.5033L391.8034 577.4833L391.8034 577.4833L388.3563 576.6878C 391.715 573.6826 410.8069 554.5907 416.9941 548.0499L416.9941 548.0499L417.7896 551.2319L417.7896 551.2319L392.3337 576.6878L392.3337 576.6878L413.0166 597.3707L413.0166 597.3707L434.6276 575.7598C 436.9257 573.4617 436.3511 572.9755 430.5175 568.2025z" stroke="none" fill="#4055FF" fill-rule="evenodd" fill-opacity="0.2980392" /><path transform="matrix(1 0 0 -1 0 843)" d="" stroke="none" fill="#4055FF" fill-rule="evenodd" fill-opacity="0.2980392" /><path transform="matrix(1 0 0 -1 0 843)" d="" stroke="none" fill="#4055FF" fill-rule="evenodd" fill-opacity="0.2980392" /><path transform="matrix(1 0 0 -1 0 843)" d="M204.2488 301.2638L208.7566 305.7716L208.7566 305.7716L209.5521 304.9761L209.5521 304.9761L209.0218 304.4458C 208.3147 303.7387 208.2705 302.7222 209.1544 301.1312L209.1544 301.1312L218.4351 285.4865L218.4351 285.4865L217.6396 284.691L217.6396 284.691L205.1769 292.3808L205.1769 292.3808L212.7341 279.7854L212.7341 279.7854L211.9386 278.9899L211.9386 278.9899L196.6916 288.1381C 195.2774 289.1988 193.9073 289.3314 193.377 288.801L193.377 288.801L192.8467 288.2707L192.8467 288.2707L192.0512 289.0662L192.0512 289.0662L196.8242 293.8392L196.8242 293.8392L197.6197 293.0437L197.6197 293.0437L197.0893 292.5133C 196.3822 291.8062 196.9126 291.0107 198.15 290.1269L198.15 290.1269L208.7566 283.4977L208.7566 283.4977L209.0218 283.7629L209.0218 283.7629L203.0555 293.7066C 201.2878 295.1208 199.9178 295.3418 199.2106 294.6347L199.2106 294.6347L198.8129 294.2369L198.8129 294.2369L198.0174 295.0324L198.0174 295.0324L202.5252 299.5402L202.5252 299.5402L203.3207 298.7447L203.3207 298.7447L202.923 298.347C 202.2159 297.6399 202.7462 296.8444 203.9836 295.9605L203.9836 295.9605L214.5902 289.3314L214.5902 289.3314L214.7228 289.4639L214.7228 289.4639L207.6959 300.9986C 207.1656 301.8825 206.4143 301.8383 205.7072 301.1312L205.7072 301.1312L205.0443 300.4683z" stroke="none" fill="#4055FF" fill-rule="evenodd" fill-opacity="0.2980392" /><path transform="matrix(1 0 0 -1 0 843)" d="M221.2194 318.2344L225.7272 322.7422L225.7272 322.7422L226.5227 321.9467L226.5227 321.9467L225.9923 321.4164C 225.2852 320.7093 225.241 319.6928 226.1249 318.1018L226.1249 318.1018L235.4057 302.457L235.4057 302.457L234.6102 301.6616L234.6102 301.6616L222.1474 309.3513L222.1474 309.3513L229.7047 296.756L229.7047 296.756L228.9092 295.9605L228.9092 295.9605L213.6622 305.1087C 212.2479 306.1693 210.8779 306.3019 210.3476 305.7716L210.3476 305.7716L209.8173 305.2413L209.8173 305.2413L209.0218 306.0368L209.0218 306.0368L213.7947 310.8098L213.7947 310.8098L214.5902 310.0143L214.5902 310.0143L214.0599 309.4839C 213.3528 308.7768 213.8831 307.9813 215.1206 307.0974L215.1206 307.0974L225.7272 300.4683L225.7272 300.4683L225.9923 300.7335L225.9923 300.7335L220.0261 310.6772C 218.2584 312.0914 216.8883 312.3123 216.1812 311.6052L216.1812 311.6052L215.7835 311.2075L215.7835 311.2075L214.988 312.003L214.988 312.003L219.4958 316.5108L219.4958 316.5108L220.2913 315.7153L220.2913 315.7153L219.8935 315.3176C 219.1864 314.6104 219.7168 313.8149 220.9542 312.9311L220.9542 312.9311L231.5608 306.3019L231.5608 306.3019L231.6934 306.4345L231.6934 306.4345L224.6665 317.9692C 224.1362 318.8531 223.3849 318.8089 222.6778 318.1018L222.6778 318.1018L222.0149 317.4389z" stroke="none" fill="#4055FF" fill-rule="evenodd" fill-opacity="0.2980392" /><path transform="matrix(1 0 0 -1 0 843)" d="M238.1899 335.205L242.6978 339.7128L242.6978 339.7128L243.4933 338.9173L243.4933 338.9173L242.9629 338.3869C 242.2558 337.6798 242.2116 336.6634 243.0955 335.0724L243.0955 335.0724L252.3763 319.4276L252.3763 319.4276L251.5808 318.6321L251.5808 318.6321L239.118 326.3219L239.118 326.3219L246.6752 313.7266L246.6752 313.7266L245.8797 312.9311L245.8797 312.9311L230.6327 322.0793C 229.2185 323.1399 227.8485 323.2725 227.3182 322.7422L227.3182 322.7422L226.7878 322.2119L226.7878 322.2119L225.9923 323.0074L225.9923 323.0074L230.7653 327.7803L230.7653 327.7803L231.5608 326.9848L231.5608 326.9848L231.0305 326.4545C 230.3234 325.7474 230.8537 324.9519 232.0912 324.068L232.0912 324.068L242.6978 317.4389L242.6978 317.4389L242.9629 317.704L242.9629 317.704L236.9967 327.6477C 235.2289 329.062 233.8589 329.2829 233.1518 328.5758L233.1518 328.5758L232.7541 328.1781L232.7541 328.1781L231.9586 328.9736L231.9586 328.9736L236.4664 333.4814L236.4664 333.4814L237.2619 332.6859L237.2619 332.6859L236.8641 332.2881C 236.157 331.581 236.6873 330.7855 237.9248 329.9016L237.9248 329.9016L248.5314 323.2725L248.5314 323.2725L248.664 323.4051L248.664 323.4051L241.6371 334.9398C 241.1068 335.8237 240.3555 335.7795 239.6484 335.0724L239.6484 335.0724L238.9854 334.4095z" stroke="none" fill="#4055FF" fill-rule="evenodd" fill-opacity="0.2980392" /><path transform="matrix(1 0 0 -1 0 843)" d="M262.32 328.841C 261.2593 327.7803 259.58 327.6035 258.3425 328.841C 257.1051 330.0784 257.2819 331.7578 258.3425 332.8185C 259.4032 333.8791 261.2593 333.8791 262.32 332.8185C 263.5574 331.581 263.3807 329.9016 262.32 328.841z" stroke="none" fill="#4055FF" fill-rule="evenodd" fill-opacity="0.2980392" /><path transform="matrix(1 0 0 -1 0 843)" d="M263.5132 365.036C 259.8009 368.7484 260.6848 373.3446 263.5132 376.173C 266.5184 379.1782 269.2585 379.4434 270.6727 378.0292C 271.3798 377.3221 271.7334 376.4382 270.6727 375.3775C 269.9656 374.6704 269.1701 374.4936 268.2862 375.3775C 268.1094 375.5543 267.8001 376.1288 267.6233 376.3056C 266.9162 377.0127 266.1207 377.1895 264.1761 375.2449C 262.0548 373.1236 261.7897 370.4719 264.9716 367.2899L264.9716 367.2899L267.6233 364.6383L267.6233 364.6383L273.1918 370.2068L273.1918 370.2068L273.9872 369.4113L273.9872 369.4113L268.4188 363.8428L268.4188 363.8428L280.6164 351.6452C 281.3235 350.9381 282.1632 351.0707 282.8703 351.7778L282.8703 351.7778L286.0523 354.9598L286.0523 354.9598L286.8478 354.1643L286.8478 354.1643L277.1693 344.4857L277.1693 344.4857L276.3737 345.2813L276.3737 345.2813L278.6277 347.5352C 279.5115 348.419 279.4673 349.0819 278.7603 349.7891L278.7603 349.7891L266.5626 361.9866L266.5626 361.9866L262.4526 357.8766L262.4526 357.8766L261.6571 358.6721L261.6571 358.6721L265.7672 362.7821z" stroke="none" fill="#4055FF" fill-rule="evenodd" fill-opacity="0.2980392" /><path transform="matrix(1 0 0 -1 0 843)" d="M283.931 373.2562C 281.2793 375.9078 282.1632 379.7085 284.9916 382.537C 286.5826 384.128 288.8365 385.056 289.3669 385.5864C 289.8972 386.1167 290.0298 386.5144 290.0298 387.5751L290.0298 387.5751L294.9353 383.7302L294.9353 383.7302L294.2724 382.8021C 291.2672 384.3931 288.041 383.9954 285.9197 381.8741C 283.6216 379.576 283.1355 377.2336 284.7264 375.6427C 286.1407 374.2285 287.4223 374.0075 289.3669 375.2449C 291.1346 375.952 293.8304 377.4104 296.1286 378.2943C 298.2499 379.0014 300.548 378.913 301.9622 377.4988C 304.6138 374.8472 304.3045 371.3558 300.769 367.8203C 298.4709 365.5222 296.8357 365.2128 296.1286 364.5057C 295.5982 363.9754 295.2889 363.0473 294.9353 361.9867L294.9353 361.9867L289.632 366.4944L289.632 366.4944L290.2949 367.4225C 293.6537 365.1245 296.7915 365.4338 299.9734 368.6158C 302.4484 371.0907 302.9345 373.3445 301.1667 375.1123C 299.9293 376.3498 298.2499 376.2614 297.1892 375.9078C 294.7144 374.8472 291.5323 373.3446 289.2343 372.4607C 286.9362 371.5768 285.1684 372.0187 283.931 373.2562z" stroke="none" fill="#4055FF" fill-rule="evenodd" fill-opacity="0.2980392" /><path transform="matrix(1 0 0 -1 0 843)" d="M304.6139 393.4088C 303.5532 398.0049 304.0835 401.6288 306.2048 403.7502C 307.9726 405.5179 309.9172 405.6064 310.9778 404.5457C 311.8617 403.6618 311.9943 402.6453 311.1104 401.7614C 310.2265 400.8776 309.1659 400.9659 308.4587 402.0266C 307.9284 402.5569 307.4865 402.9105 306.6026 402.0266C 305.1884 400.6124 304.7465 396.4581 306.3374 391.6852L306.3374 391.6852L313.4969 384.5257C 314.204 383.8186 315.0437 383.9512 315.7508 384.6583L315.7508 384.6583L318.6676 387.5751L318.6676 387.5751L319.4631 386.7796L319.4631 386.7796L309.652 376.9685L309.652 376.9685L308.8565 377.764L308.8565 377.764L311.5081 380.4156C 312.392 381.2995 312.3478 381.9624 311.6407 382.6696L311.6407 382.6696L300.6364 393.6739C 299.9293 394.381 299.1338 394.5578 298.2499 393.6739L298.2499 393.6739L295.7308 391.1548L295.7308 391.1548L294.9353 391.9503L294.9353 391.9503L295.996 393.011C 297.2334 394.2484 298.9128 396.5465 299.4431 397.784L299.4431 397.784L299.8409 398.1817z" stroke="none" fill="#4055FF" fill-rule="evenodd" fill-opacity="0.2980392" /><path transform="matrix(1 0 0 -1 0 843)" d="M330.2023 396.7233C 329.1417 395.6627 327.4623 395.4859 326.2249 396.7233C 324.9874 397.9608 325.1642 399.6401 326.2249 400.7008C 327.2855 401.7614 329.1417 401.7614 330.2023 400.7008C 331.4398 399.4633 331.263 397.784 330.2023 396.7233z" stroke="none" fill="#4055FF" fill-rule="evenodd" fill-opacity="0.2980392" /><path transform="matrix(1 0 0 -1 0 843)" d="M350.4875 432.6532C 354.9069 428.2338 355.1721 421.9582 351.283 418.0691C 347.2171 414.0032 340.9415 414.6219 336.6989 418.8646C 332.8098 422.7537 331.8375 429.3828 335.9034 433.4487C 340.146 437.6913 346.5984 436.5423 350.4875 432.6532zM338.9528 420.8533C 343.549 416.2571 347.8358 416.213 350.4875 418.8646C 353.4927 421.8698 352.7414 426.1567 348.4987 430.3993C 343.9025 434.9955 339.3505 435.3049 336.6989 432.6532C 334.224 430.1783 334.3566 425.4495 338.9528 420.8533z" stroke="none" fill="#4055FF" fill-rule="evenodd" fill-opacity="0.2980392" /><path transform="matrix(1 0 0 -1 0 843)" d="M355.5256 444.3205C 354.4649 448.9167 354.9953 452.5406 357.1166 454.6619C 358.8843 456.4297 360.8289 456.5181 361.8896 455.4574C 362.7734 454.5735 362.906 453.5571 362.0222 452.6732C 361.1382 451.7893 360.0776 451.8777 359.3705 452.9384C 358.8401 453.4687 358.3982 453.8222 357.5143 452.9384C 356.1001 451.5241 355.6582 447.3699 357.2492 442.5969L357.2492 442.5969L364.4086 435.4374C 365.1157 434.7303 365.9554 434.8629 366.6625 435.57L366.6625 435.57L369.5793 438.4868L369.5793 438.4868L370.3749 437.6913L370.3749 437.6913L360.5637 427.8802L360.5637 427.8802L359.7682 428.6757L359.7682 428.6757L362.4199 431.3274C 363.3038 432.2112 363.2596 432.8742 362.5525 433.5813L362.5525 433.5813L351.5481 444.5856C 350.841 445.2928 350.0455 445.4695 349.1616 444.5856L349.1616 444.5856L346.6426 442.0666L346.6426 442.0666L345.847 442.8621L345.847 442.8621L346.9077 443.9227C 348.1452 445.1602 349.8246 447.4583 350.3549 448.6957L350.3549 448.6957L350.7526 449.0934z" stroke="none" fill="#4055FF" fill-rule="evenodd" fill-opacity="0.2980392" /><path transform="matrix(1 0 0 -1 0 843)" d="M371.1703 458.3742C 373.2917 456.2529 376.3411 455.8552 378.4624 457.9765C 380.7605 460.2746 380.5396 462.7936 378.0646 465.2685C 375.0594 468.2737 372.3194 468.0086 370.3749 466.064C 368.4303 464.1195 368.1652 461.3795 371.1703 458.3742zM384.8264 457.7113C 387.8315 460.0094 390.1739 460.0536 392.1184 458.1091C 394.7701 455.4574 394.3723 451.6125 389.5994 446.8395C 385.887 443.1272 381.6002 442.3759 379.6556 444.3205C 378.4182 445.5579 377.8879 447.7676 379.1253 450.4193C 377.5343 449.8889 376.2969 449.8005 375.413 450.6844C 374.3524 451.7451 374.3524 453.3361 374.8827 454.9271C 372.9381 454.7503 370.7284 455.1039 369.3142 456.5181C 366.6625 459.1697 366.2206 463.5008 369.5793 466.8595C 370.9936 468.2737 372.7172 469.3786 374.4849 469.3786C 374.8385 471.4999 375.3688 472.9141 376.0759 473.6212C 376.9598 474.5051 378.0646 474.019 378.595 473.4886C 379.3021 472.7816 379.5673 472.0745 378.8602 471.3673C 378.3298 470.837 377.7111 470.7486 377.004 471.1022C 376.2969 471.4557 375.7224 470.616 375.5456 469.3786C 376.9598 469.3786 378.6833 468.3621 379.9208 467.1247C 382.0421 465.0034 382.9702 460.8933 379.2579 457.181C 378.1973 456.1204 376.9598 455.5016 376.0759 455.3248C 375.7224 454.2642 375.9875 453.2919 376.3411 452.9384C 377.0482 452.2313 377.7553 452.2312 378.4624 452.9384C 381.1141 454.8829 383.2354 456.4739 384.8264 457.7113zM380.4511 451.2148C 379.5673 448.9167 379.965 447.4583 381.3792 446.0441C 382.7935 444.6298 385.887 444.7182 389.069 447.9002C 392.0742 450.9054 393.0023 453.778 391.0577 455.7226C 389.8203 456.96 388.6713 457.2252 387.6106 456.5181C 385.4893 455.1039 383.1028 453.1593 380.4511 451.2148z" stroke="none" fill="#4055FF" fill-rule="evenodd" fill-opacity="0.2980392" /><path transform="matrix(1 0 0 -1 0 843)" d="M398.0847 464.6056C 397.024 463.545 395.3446 463.3682 394.1072 464.6056C 392.8698 465.8431 393.0465 467.5224 394.1072 468.5831C 395.1678 469.6438 397.024 469.6438 398.0847 468.5831C 399.3221 467.3457 399.1453 465.6663 398.0847 464.6056z" stroke="none" fill="#4055FF" fill-rule="evenodd" fill-opacity="0.2980392" /><path transform="matrix(1 0 0 -1 0 843)" d="M410.5474 500.403C 410.0171 500.9333 410.1055 501.0217 409.7519 501.7288C 409.2216 502.6126 407.1002 503.0546 404.9789 500.9333C 402.3273 498.2816 402.9902 493.3761 407.2328 489.1334C 411.1219 485.2443 415.1878 484.0953 418.9001 487.8076C 421.375 490.2825 421.2424 493.8622 419.8282 496.6906L419.8282 496.6906L420.7563 497.0884C 422.7008 493.7296 422.9218 489.7079 419.563 486.3492C 415.3204 482.1065 409.9287 482.1949 404.9789 487.1447C 400.5595 491.5641 400.2059 497.7513 404.4486 501.9939C 407.4538 504.9991 411.2103 504.7782 412.8013 503.1872C 413.8619 502.1265 413.8177 501.2868 412.9339 500.403C 412.2268 499.6958 411.2545 499.6958 410.5474 500.403z" stroke="none" fill="#4055FF" fill-rule="evenodd" fill-opacity="0.2980392" /><path transform="matrix(1 0 0 -1 0 843)" d="M428.446 495.7625L427.6506 496.558L427.6506 496.558L428.3135 497.2209C 429.1974 498.1049 429.1532 498.7678 428.446 499.4749L428.446 499.4749L417.0439 510.877C 416.5136 511.4073 416.1158 511.5399 415.5855 511.0096L415.5855 511.0096L414.5249 509.9489L414.5249 509.9489L413.7294 510.7444L413.7294 510.7444L414.6575 511.6725C 415.5413 512.5563 416.2043 513.4844 416.381 514.7219L416.381 514.7219L416.6462 514.9871L416.6462 514.9871L419.6956 511.9376C 419.5189 515.2964 420.1818 517.7271 421.9495 519.4948C 424.9547 522.5001 427.9157 522.2791 431.0977 519.0971L431.0977 519.0971L439.583 510.6118C 440.2901 509.9047 441.1298 510.0373 441.8369 510.7444L441.8369 510.7444L442.4998 511.4073L442.4998 511.4073L443.2953 510.6118L443.2953 510.6118L437.7269 505.0433L437.7269 505.0433L436.9313 505.8388L436.9313 505.8388L437.5942 506.5017C 438.4781 507.3856 438.434 508.0485 437.7268 508.7556L437.7268 508.7556L428.8438 517.6387C 426.7225 519.76 424.6453 520.0693 422.8776 518.3016C 421.2866 516.7106 420.6237 513.838 421.154 510.4792L421.154 510.4792L430.3022 501.331C 431.0093 500.6239 431.849 500.7565 432.5561 501.4636L432.5561 501.4636L433.2191 502.1265L433.2191 502.1265L434.0145 501.331z" stroke="none" fill="#4055FF" fill-rule="evenodd" fill-opacity="0.2980392" /></g><g clip-path="url(#3)"></g><g clip-path="url(#4)"></g></g></g></g></svg>