<svg xmlns="http://www.w3.org/2000/svg" xmlns:xlink="http://www.w3.org/1999/xlink" id="body_7" preserveAspectRatio="xMinYMin meet" viewBox="0 0 773 1124"><defs><clipPath id="1"><path d="M0 843L0 -0.5999756L0 -0.5999756L580.8 -0.5999756L580.8 -0.5999756L580.8 843L580.8 843L0 843z" /></clipPath><clipPath id="2"><path d="M171.8864 608.1566L477.3569 302.6862L477.3569 302.6862L408.914 234.2433L408.914 234.2433L103.4435 539.7137z" /></clipPath><clipPath id="3"><path d="M72 807L144 807L144 807L144 799.032L144 799.032L72 799.032z" /></clipPath><clipPath id="4"><path d="M452.8 807L508.8 807L508.8 807L508.8 799.032L508.8 799.032L452.8 799.032z" /></clipPath></defs><g transform="matrix(1.333333 0 0 1.333333 0 0)"><g><g clip-path="url(#1)"><g transform="matrix(0.24 0 0 0.24 0 -0.5999756)"><g transform="matrix(1 0 0 1 0 0)"><image x="0" y="0" xlink:href="img_13.png" width="2420" height="3515" /></g></g><g clip-path="url(#2)"><path transform="matrix(1 0 0 -1 0 843)" d="M130.3418 311.3899L139.8877 320.9359L139.8877 320.9359L148.7708 312.0529L148.7708 312.0529L139.2248 302.5069zM127.8227 310.1967L118.6745 301.0485L118.6745 301.0485L115.4925 299.9878C 117.3487 298.3084 119.691 296.0545 122.5194 293.2261C 125.3478 290.3977 127.1598 288.5415 127.9553 287.6576C 128.7508 286.7737 129.1485 286.2434 129.1485 286.0667L129.1485 286.0667L130.4743 288.9835L130.4743 288.9835L128.7508 290.707L128.7508 290.707L138.0316 299.9878C 144.7491 293.2703 149.2127 288.7183 151.4224 286.3318L151.4224 286.3318L152.7482 289.2486C 150.9805 290.8396 146.6936 295.0381 139.8877 301.844L139.8877 301.844L149.4337 311.3899L149.4337 311.3899L151.9527 308.8708L151.9527 308.8708L153.146 311.6551C 151.9969 312.6274 150.9363 313.5996 149.964 314.5719L149.964 314.5719L142.4068 322.1291L142.4068 322.1291L142.5394 324.1179L142.5394 324.1179L138.6945 323.7201L138.6945 323.7201L138.9596 321.3336L138.9596 321.3336L129.6788 312.0529L129.6788 312.0529L124.3755 317.3561L124.3755 317.3561L124.3755 319.2123L124.3755 319.2123L120.1329 317.6213C 121.9891 315.9419 124.5523 313.4671 127.8227 310.1967zM119.2048 300.253L128.4856 309.5338L128.4856 309.5338L137.3687 300.6507L137.3687 300.6507L128.0879 291.37z" stroke="none" fill="#4055FF" fill-rule="evenodd" fill-opacity="0.2980392" /><path transform="matrix(1 0 0 -1 0 843)" d="M152.7482 338.3042L155.0021 338.4368L155.0021 338.4368L155.7976 340.0278L155.7976 340.0278L161.1009 345.3311L161.1009 345.3311L167.4649 338.9671L167.4649 338.9671L160.8358 332.338L160.8358 332.338L163.0897 332.4706L163.0897 332.4706L164.0178 334.1942L164.0178 334.1942L168.1278 338.3042L168.1278 338.3042L177.0109 329.4212L177.0109 329.4212L168.5256 320.9359L168.5256 320.9359L170.6469 320.9359C 171.1772 321.9966 171.9285 323.013 172.9008 323.9853L172.9008 323.9853L188.5455 339.63L188.5455 339.63L183.7726 339.63L183.7726 339.63L183.9052 336.3155L183.9052 336.3155L178.867 331.2773L178.867 331.2773L169.984 340.1604L169.984 340.1604L177.5412 347.7176L177.5412 347.7176L173.0334 347.7176L173.0334 347.7176L173.166 344.6682L173.166 344.6682L169.3211 340.8233L169.3211 340.8233L162.9571 347.1873L162.9571 347.1873L171.7076 355.9377L171.7076 355.9377L167.1997 355.9377L167.1997 355.9377L167.3323 352.8883zM172.6356 340.4255L172.6356 339.63C 175.9944 339.63 178.4914 339.2544 180.1266 338.5031C 181.7617 337.7518 182.3584 338.1716 181.9164 339.7626C 181.4745 341.3536 180.5243 342.127 179.0659 342.0828C 177.6075 342.0386 175.4641 341.4862 172.6356 340.4255zM174.094 309.799L175.1547 312.7158L175.1547 312.7158L172.6356 315.2348L172.6356 315.2348L193.4511 336.0503L193.4511 336.0503L196.1028 333.3987L196.1028 333.3987L197.4286 336.0503C 195.484 337.8181 193.6279 339.5858 191.8601 341.3536L191.8601 341.3536L170.912 362.3017L170.912 362.3017L171.0446 364.0252L171.0446 364.0252L167.5975 364.0252L167.5975 364.0252L167.5975 361.6388L167.5975 361.6388L146.9146 340.9559L146.9146 340.9559L143.7326 340.1604C 146.0307 338.039 148.0195 336.1387 149.6988 334.4593L149.6988 334.4593L168.5256 315.6326C 170.3817 313.7764 172.2379 311.8319 174.094 309.799zM147.5775 340.2929L168.393 361.1084L168.393 361.1084L192.7882 336.7132L192.7882 336.7132L171.9727 315.8977z" stroke="none" fill="#4055FF" fill-rule="evenodd" fill-opacity="0.2980392" /><path transform="matrix(1 0 0 -1 0 843)" d="M199.4173 364.2904L211.2172 376.0903L211.2172 376.0903L214.6643 372.6431L214.6643 372.6431L202.8645 360.8433zM187.6175 358.059C 192.3904 370.2566 192.6998 376.6648 191.9927 383.3823C 204.5439 382.1449 210.2449 384.3988 215.1947 387.2272C 214.3992 388.0227 214.6643 389.5253 215.9902 391.735L215.9902 391.735L215.4598 392.2654C 209.4494 386.6085 202.1132 383.6033 191.8601 384.3104L191.8601 384.3104L192.7882 386.5643L192.7882 386.5643L187.8826 385.3711C 189.8272 381.3052 190.4901 369.5053 186.9546 358.1916zM193.0533 378.3442L192.9208 377.6813C 195.7492 377.3277 197.9368 376.8195 199.4836 376.1566C 201.0304 375.4937 201.627 375.8693 201.2735 377.2835C 200.9199 378.6977 200.2128 379.449 199.1522 379.5374C 198.0915 379.6258 196.0586 379.2281 193.0533 378.3442zM216.3879 362.1691L211.2172 352.4905L211.2172 352.4905L203.5274 360.1804L203.5274 360.1804L215.3272 371.9802L215.3272 371.9802L216.5205 370.787L216.5205 370.787L217.316 373.9689C 216.9624 374.1457 214.355 376.6648 209.4936 381.5262L209.4936 381.5262L210.0239 383.3823L210.0239 383.3823L205.9139 383.2497L205.9139 383.2497L206.179 380.5981L206.179 380.5981L194.7769 369.196L194.7769 369.196L191.4624 368.2679C 192.7882 367.1188 194.2466 365.7488 195.8376 364.1578L195.8376 364.1578L207.77 352.2254C 209.0075 350.9879 209.582 350.0599 209.4936 349.4412L209.4936 349.4412L213.3385 348.5131C 212.8966 349.6621 214.1782 354.1257 217.1834 361.9039zM207.77 361.5062L207.9026 360.8433C 211.9685 362.2575 215.8576 363.4507 219.5699 364.423C 223.2822 365.3953 226.199 365.8814 228.3203 365.8814C 230.4417 365.8814 231.0383 366.478 230.1102 367.6713C 229.1821 368.8645 228.011 369.3286 226.5968 369.0634C 225.1826 368.7982 222.6635 367.9143 219.0396 366.4117C 220.277 370.1241 221.0283 373.4386 222.6193 375.0296L222.6193 375.0296L218.2441 374.897C 218.686 373.2177 218.6418 370.2566 218.1115 366.014C 214.4875 364.5114 211.0404 363.0088 207.77 361.5062zM195.3073 368.4005L207.1071 380.2003L207.1071 380.2003L210.5543 376.7532L210.5543 376.7532L198.7544 364.9533z" stroke="none" fill="#4055FF" fill-rule="evenodd" fill-opacity="0.2980392" /><path transform="matrix(1 0 0 -1 0 843)" d="M254.0414 415.2021L254.174 416.9257L254.174 416.9257L250.4617 416.6606L250.4617 416.6606L250.7268 414.274L250.7268 414.274L244.0977 407.6449L244.0977 407.6449L240.7831 406.982C 245.0258 403.0929 251.4781 396.6406 255.3672 392.3979L255.3672 392.3979L256.5604 395.1822L256.5604 395.1822L253.9088 397.8338L253.9088 397.8338L260.8031 404.7281L260.8031 404.7281L263.8525 401.6787L263.8525 401.6787L265.0457 404.463C 264.0735 405.2585 260.4053 408.8382 254.0414 415.2021zM244.7606 406.982L251.6549 413.8763L251.6549 413.8763L260.1402 405.391L260.1402 405.391L253.2459 398.4967zM234.154 424.7481L234.4191 426.6042L234.4191 426.6042L230.5742 426.2065L230.5742 426.2065L230.8394 423.82L230.8394 423.82L220.2328 413.2134L220.2328 413.2134L216.9182 412.2853C 220.8073 408.7498 224.9616 404.5955 230.4417 398.7619L230.4417 398.7619L231.7675 401.4135L231.7675 401.4135L229.9113 403.2697L229.9113 403.2697L240.9157 414.2741L240.9157 414.2741L243.037 412.1527L243.037 412.1527L244.2303 414.937C 241.8438 417.1467 238.485 420.4171 234.154 424.7481zM220.7631 412.4179L231.7675 423.4223L231.7675 423.4223L240.2528 414.937L240.2528 414.937L229.2484 403.9326zM239.1921 400.0877L239.4573 401.9439L239.4573 401.9439L235.6124 401.5461L235.6124 401.5461L235.745 399.2922L235.745 399.2922L229.5136 393.0609L229.5136 393.0609L226.3316 392.2654C 230.3975 388.553 236.9382 382.0123 241.1809 377.4161L241.1809 377.4161L242.3741 380.2003L242.3741 380.2003L239.3247 383.2497L239.3247 383.2497L245.8213 389.7463L245.8213 389.7463L248.7381 386.8295L248.7381 386.8295L249.7987 389.7463C 247.589 391.7792 244.0535 395.2264 239.1921 400.0877zM230.1765 392.3979L236.673 398.8945L236.673 398.8945L245.1583 390.4092L245.1583 390.4092L238.6618 383.9127z" stroke="none" fill="#4055FF" fill-rule="evenodd" fill-opacity="0.2980392" /><path transform="matrix(1 0 0 -1 0 843)" d="M263.4548 442.9119C 264.7806 441.0558 266.0622 438.6251 267.2996 435.6199L267.2996 435.6199L256.9582 425.2784L256.9582 425.2784L259.0795 425.2784L259.0795 425.2784L260.0076 427.002L260.0076 427.002L267.6974 434.6918C 269.3768 430.8911 270.5258 427.6207 271.1445 424.8807C 274.2381 426.9136 277.8621 428.9465 282.0163 430.9795C 282.1047 424.8807 279.3647 417.898 273.7962 410.0314L273.7962 410.0314L274.4591 409.6337C 280.6463 416.8815 284.3586 424.5713 284.5354 432.1727C 289.6619 434.4708 293.7941 435.7303 296.9319 435.9513C 300.0696 436.1723 301.1303 436.9236 300.1138 438.2052C 299.0974 439.4869 297.3959 439.7741 295.0094 439.067C 292.6229 438.3599 289.0432 436.7689 284.2702 434.2941C 283.6515 438.0948 282.3699 442.47 280.4253 447.4197L280.4253 447.4197L287.5848 454.5792L287.5848 454.5792L283.077 454.5792L283.077 454.5792L283.077 451.3972L283.077 451.3972L269.2884 437.6086L269.2884 437.6086L267.5648 441.9838L267.5648 441.9838L267.83 444.1052zM269.6862 436.6805L278.1714 445.1658C 280.0276 440.658 281.2208 436.548 281.7512 432.8356C 279.8066 431.775 276.8456 429.963 272.8681 427.3997C 271.9842 430.405 270.9236 433.4986 269.6862 436.6805zM255.765 452.1927C 258.3282 451.9276 260.4274 451.2867 262.0626 450.2703C 263.6978 449.2538 264.427 449.541 264.2502 451.132C 264.0735 452.723 263.2559 453.5848 261.7975 453.7174C 260.3391 453.85 258.284 453.5627 255.6324 452.8556zM277.1108 453.386L277.7737 453.7837C 277.155 457.7612 277.4643 460.457 278.7018 461.8712L278.7018 461.8712L273.9288 461.8712L273.9288 461.8712L274.0613 458.8218L274.0613 458.8218L254.174 438.9344L254.174 438.9344L252.583 440.5255L252.583 440.5255L251.9201 439.8625C 253.5994 437.6528 254.3507 435.6641 254.174 433.8963C 253.9972 432.1285 254.4612 431.4435 255.5661 431.8413C 256.671 432.239 257.2676 433.0124 257.356 434.1615C 257.4443 435.3105 256.6046 436.6805 254.8369 438.2715L254.8369 438.2715L274.9894 458.4241z" stroke="none" fill="#4055FF" fill-rule="evenodd" fill-opacity="0.2980392" /><path transform="matrix(1 0 0 -1 0 843)" d="M293.8162 485.4709C 299.5614 483.9684 304.9089 483.4822 309.8587 484.0125L309.8587 484.0125L309.7261 481.2283L309.7261 481.2283L295.2746 466.7768C 295.7165 473.4059 295.2304 479.6373 293.8162 485.4709zM289.5735 487.062C 292.2252 481.9354 294.8326 471.2846 291.8274 456.9657L291.8274 456.9657L292.4904 456.8331C 293.993 460.6338 294.921 463.86 295.2746 466.5116L295.2746 466.5116L297.6611 466.5117L297.6611 466.5117L298.1914 468.3678L298.1914 468.3678L303.8925 474.0688L303.8925 474.0688L310.5216 467.4397L310.5216 467.4397L301.3734 458.2915L301.3734 458.2915L303.4947 458.2915C 304.025 459.3522 304.7763 460.3687 305.7486 461.3409L305.7486 461.3409L311.1845 466.7768L311.1845 466.7768L318.8743 459.087L318.8743 459.087L306.2789 446.4916L306.2789 446.4916L308.4003 446.4916C 308.9306 447.5523 309.6819 448.5688 310.6542 449.5411L310.6542 449.5411L335.1819 474.0688L335.1819 474.0688L329.8787 474.0688L329.8787 474.0688L330.1438 470.3565L330.1438 470.3565L320.7305 460.9432L320.7305 460.9432L313.0406 468.633L313.0406 468.633L322.9844 478.5767L322.9844 478.5767L318.344 478.4441L318.344 478.4441L318.344 475.2621L318.344 475.2621L312.3777 469.2959L312.3777 469.2959L305.7486 475.925L305.7486 475.925L313.8362 484.0125L313.8362 484.0125L311.1845 484.2777C 314.5433 484.808 317.4159 485.4709 319.8024 486.2664C 319.3604 487.2387 319.6698 488.6971 320.7305 490.6417L320.7305 490.6417L320.3327 491.0394C 309.9029 485.2058 299.3405 485.25 293.6836 486.6642L293.6836 486.6642L294.2139 488.5204z" stroke="none" fill="#4055FF" fill-rule="evenodd" fill-opacity="0.2980392" /><path transform="matrix(1 0 0 -1 0 843)" d="M341.5459 521.2682L342.3414 521.5334C 341.9879 526.1296 342.0763 528.6045 343.6673 530.5491L343.6673 530.5491L338.4965 530.4165L338.4965 530.4165L338.8943 527.6322L338.8943 527.6322L329.4809 518.2189C 328.597 521.2241 328.4644 522.9476 329.0832 523.3896L329.0832 523.3896L325.1057 522.0638C 327.227 518.5282 329.2158 512.9155 328.6854 506.0213L328.6854 506.0213L329.4809 506.0213C 330.6299 509.2916 330.7625 513.0482 329.8787 517.2908L329.8787 517.2908L339.8224 527.2345zM333.0606 519.147C 337.3033 514.9043 338.0988 508.8939 331.2045 498.4641L331.2045 498.4641L331.8674 498.0663C 338.143 505.4025 339.9991 511.9433 337.4359 517.6885C 341.9437 515.3021 347.2028 515.1695 353.2132 517.2908C 352.5061 518.5282 353.0364 519.9424 354.8042 521.5334L354.8042 521.5334L354.4064 521.9312C 348.6612 517.7769 342.916 516.6279 337.1707 518.484C 336.6404 519.3679 336.552 520.1635 336.9055 520.8705zM314.1013 508.9381L314.3665 508.1426C 316.6646 508.6729 318.6312 508.7392 320.2664 508.3415C 321.9016 507.9437 322.5645 508.3415 322.2552 509.5347C 321.9458 510.728 321.1724 511.413 319.935 511.5897C 318.6975 511.7665 316.753 510.8826 314.1013 508.9381zM324.3102 515.6998C 324.3102 508.6287 324.1555 504.6733 323.8461 503.8336C 323.5368 502.994 323.2053 502.3973 322.8518 502.0438C 322.4982 501.6902 321.3934 501.0273 319.5372 500.0551L319.5372 500.0551L319.935 499.3922C 321.8795 500.276 323.3379 500.4528 324.3102 499.9225C 325.2825 499.3922 326.0558 498.3978 326.6304 496.9394C 327.2049 495.481 328.2435 494.9285 329.7461 495.2821C 331.2487 495.6356 331.3592 496.409 330.0775 497.6023C 328.7959 498.7955 327.8015 499.9225 327.0944 500.9831C 326.3873 502.0438 325.9454 503.6348 325.7686 505.7561C 325.5918 507.8774 325.3267 511.2362 324.9731 515.8324zM343.5347 487.99L344.4628 490.7743L344.4628 490.7743L335.9775 499.2596L335.9775 499.2596L348.9706 512.2527L348.9706 512.2527L357.4559 503.7674L357.4559 503.7674L358.2513 506.6842C 356.7487 508.01 354.4506 510.2197 351.3571 513.3133L351.3571 513.3133L351.8874 515.1694L351.8874 515.1694L347.7773 514.7717L347.7773 514.7717L348.0425 512.3853L348.0425 512.3853L335.7123 500.0551L335.7123 500.0551L332.6629 498.8618C 336.552 495.3263 339.4688 492.4095 343.5347 487.99zM342.7392 503.1044L344.7279 501.1157C 346.4957 498.9944 347.5563 496.7405 347.9099 494.354C 348.2634 491.9675 347.8436 489.2496 346.6504 486.2001C 345.4571 483.1508 344.065 480.3886 342.474 477.9138L342.474 477.9138L343.0043 477.6486C 345.8328 481.1841 347.8657 484.5429 349.1031 487.7249C 350.3406 490.9069 350.7162 493.669 350.2301 496.0113C 349.744 498.3536 348.7938 500.497 347.3796 502.4415L347.3796 502.4415L347.5121 504.4303zM351.8874 497.1382C 354.8926 498.906 357.5443 500.2318 359.8423 501.1157C 362.1404 501.9996 364.085 502.4415 365.676 502.4415C 367.267 502.4415 367.9741 502.9277 367.7973 503.9C 367.6205 504.8722 366.8913 505.3805 365.6097 505.4246C 364.3281 505.4688 362.5824 504.9164 360.3727 503.7674C 358.163 502.6183 355.1577 500.5854 351.3571 497.6686z" stroke="none" fill="#4055FF" fill-rule="evenodd" fill-opacity="0.2980392" /><path transform="matrix(1 0 0 -1 0 843)" d="M370.3163 549.5084L379.0668 558.2588L379.0668 558.2588L383.0443 554.2814L383.0443 554.2814L374.2938 545.5309zM374.9567 544.868L383.7072 553.6184L383.7072 553.6184L387.8173 549.5084L387.8173 549.5084L379.0668 540.7579zM381.1882 537.3108C 382.1604 535.4546 382.6465 530.4607 382.6465 522.3289L382.6465 522.3289L383.3094 522.1964C 384.7237 530.6816 384.2375 534.0846 385.2982 537.9737zM388.7454 543.5421C 392.988 543.3654 396.1258 542.7466 398.1588 541.686C 400.1917 540.6253 401.0534 540.8684 400.7441 542.4152C 400.4348 543.962 399.5287 544.9122 398.0261 545.2657C 396.5236 545.6193 393.3857 545.2657 388.6128 544.2051zM379.1994 536.913L380.5252 539.2995L380.5252 539.2995L379.7297 540.095L379.7297 540.095L383.1769 543.5422L383.1769 543.5422L391.6622 535.0569C 393.0764 533.6427 390.8667 532.2285 388.215 530.2839L388.215 530.2839L388.7454 529.7535C 391.3086 531.0794 393.2974 531.212 394.7115 530.1513C 396.1258 532.4494 395.9048 534.5266 394.0486 536.3827L394.0486 536.3827L385.033 545.3983L385.033 545.3983L388.4802 548.8455L388.4802 548.8455L389.6734 547.6522L389.6734 547.6522L390.8667 550.1713C 390.0712 550.79 386.9334 553.8394 381.4533 559.3195L381.4533 559.3195L381.9836 561.1757L381.9836 561.1757L378.2713 561.4408L378.2713 561.4408L378.2714 558.7892L378.2714 558.7892L372.3051 552.8229C 371.598 557.0656 371.5538 557.9053 372.4377 559.8498L372.4377 559.8498L368.9905 559.0543L368.9905 559.0543L378.4039 568.4677L378.4039 568.4677L373.3658 568.4677L373.3658 568.4677L373.3658 564.7554L373.3658 564.7554L359.8423 551.2319L359.8423 551.2319L356.13 550.1713C 358.6049 548.0499 361.9416 544.8901 366.14 540.6917C 370.3384 536.4932 373.41 532.5378 375.3545 528.8254C 377.2991 525.1132 378.3597 520.517 378.5365 515.0369L378.5365 515.0369L379.332 515.0369C 379.9507 520.6053 379.4203 525.3341 377.741 529.2232C 376.0616 533.1123 373.653 536.6699 370.5153 539.8961C 367.3774 543.1223 363.9524 546.5916 360.2401 550.3039L360.2401 550.3039L368.3276 558.3914C 369.2999 557.0656 370.3605 554.9443 371.5096 552.0275L371.5096 552.0275L369.6534 550.1713L369.6534 550.1713L366.7366 549.3758C 371.1561 545.3099 375.1335 541.3325 379.1994 536.913zM360.6378 544.6028L359.9749 544.2051C 364.9247 532.7146 367.5321 526.3506 367.7973 525.1132C 368.0624 523.8757 368.0182 523.036 367.6647 522.5941C 367.3112 522.1522 366.2505 521.2241 364.4827 519.8099L364.4827 519.8099L365.0131 519.2795C 366.6924 520.2518 368.0403 520.76 369.0568 520.8042C 370.0733 520.8484 371.2224 519.6994 372.504 517.3571C 373.7856 515.0148 375.1335 514.1972 376.5477 514.9043C 377.962 515.6115 378.3376 516.2522 377.6747 516.8268C 377.0118 517.4012 375.8627 518.4619 374.2275 520.0087C 372.5923 521.5555 371.3549 523.0581 370.5153 524.5165C 369.6755 525.975 366.3831 532.6704 360.6378 544.6028zM352.5503 532.0074L352.6829 531.3445C 355.8649 531.1678 358.2513 530.6816 359.8423 529.8861C 361.4333 529.0906 362.2951 529.1127 362.4277 529.9525C 362.5603 530.7921 362.1183 531.7202 361.1019 532.7367C 360.0854 533.7532 357.2349 533.5101 352.5503 532.0074zM347.9099 542.7467L348.0425 542.0837C 350.9593 541.8186 353.2132 541.2883 354.8042 540.4927C 356.3952 539.6973 357.1686 539.8961 357.1244 541.0894C 357.0802 542.2826 356.4615 543.1665 355.2682 543.741C 354.075 544.3156 351.6222 543.9841 347.9099 542.7467z" stroke="none" fill="#4055FF" fill-rule="evenodd" fill-opacity="0.2980392" /><path transform="matrix(1 0 0 -1 0 843)" d="M402.4014 573.6384C 401.3407 576.8204 400.0591 579.2511 399.8823 582.2563L399.8823 582.2563L395.7722 581.5934C 397.7168 578.7649 399.1752 576.2458 400.1475 574.0361C 397.5842 574.3013 394.9767 574.434 392.3251 574.4339L392.3251 574.4339L392.1925 573.771C 395.4629 573.3291 398.4239 572.6661 401.0756 571.7822C 403.3737 567.0093 404.9204 562.5457 405.7159 558.3914L405.7159 558.3914L406.5114 558.6566C 405.9811 562.7225 405.0088 566.8767 403.5946 571.1193C 405.5391 570.4122 407.329 569.5504 408.9642 568.534C 410.5994 567.5175 411.4833 567.4291 411.6158 568.2688C 411.7484 569.1085 411.5717 569.8598 411.0855 570.5227C 410.5994 571.1857 409.7818 571.738 408.6328 572.18C 407.4837 572.6219 405.4066 573.1081 402.4014 573.6384zM412.7428 581.5934C 410.975 585.836 409.4282 589.5042 409.4282 591.2719L409.4282 591.2719L405.3182 590.3438C 407.2628 587.6921 408.9421 584.7754 410.3563 581.5934C 407.6163 581.8585 404.7437 581.9027 401.7385 581.726L401.7385 581.726L401.6058 581.063C 404.7878 580.7095 407.9698 580.1792 411.1518 579.472C 413.0964 574.8759 414.3338 570.1913 414.8641 565.4183L414.8641 565.4183L415.6597 565.4183C 415.748 569.3958 415.0851 573.9478 413.6709 579.0743C 416.4109 578.2788 418.5986 577.417 420.2337 576.489C 421.8689 575.5609 422.7086 575.5167 422.7528 576.3563C 422.797 577.196 422.5981 578.0137 422.1562 578.8091C 421.7142 579.6046 420.9188 580.1792 419.7697 580.5327C 418.6207 580.8862 416.2784 581.2399 412.7428 581.5934zM424.8079 567.6722C 428.255 569.882 430.5973 570.368 431.8347 569.1306C 433.0721 572.4894 433.735 574.1246 431.437 576.4227L431.437 576.4227L409.0305 598.8291L409.0305 598.8291L409.2957 600.9504L409.2957 600.9504L405.1856 600.5527L405.1856 600.5527L405.5833 597.5033L405.5833 597.5033L385.5634 577.4833L385.5634 577.4833L382.1162 576.6878C 385.475 573.6826 404.5669 554.5907 410.7541 548.0499L410.7541 548.0499L411.5496 551.2319L411.5496 551.2319L386.0937 576.6878L386.0937 576.6878L406.7766 597.3707L406.7766 597.3707L428.3876 575.7598C 430.6857 573.4617 430.1111 572.9755 424.2775 568.2025z" stroke="none" fill="#4055FF" fill-rule="evenodd" fill-opacity="0.2980392" /><path transform="matrix(1 0 0 -1 0 843)" d="" stroke="none" fill="#4055FF" fill-rule="evenodd" fill-opacity="0.2980392" /><path transform="matrix(1 0 0 -1 0 843)" d="" stroke="none" fill="#4055FF" fill-rule="evenodd" fill-opacity="0.2980392" /><path transform="matrix(1 0 0 -1 0 843)" d="M198.0088 301.2638L202.5166 305.7716L202.5166 305.7716L203.3121 304.9761L203.3121 304.9761L202.7817 304.4458C 202.0746 303.7387 202.0304 302.7222 202.9143 301.1312L202.9143 301.1312L212.1951 285.4865L212.1951 285.4865L211.3996 284.691L211.3996 284.691L198.9368 292.3808L198.9368 292.3808L206.494 279.7854L206.494 279.7854L205.6986 278.9899L205.6986 278.9899L190.4516 288.1381C 189.0373 289.1988 187.6673 289.3314 187.137 288.801L187.137 288.801L186.6067 288.2707L186.6067 288.2707L185.8112 289.0662L185.8112 289.0662L190.5841 293.8392L190.5841 293.8392L191.3796 293.0437L191.3796 293.0437L190.8493 292.5133C 190.1422 291.8062 190.6725 291.0107 191.91 290.1269L191.91 290.1269L202.5166 283.4977L202.5166 283.4977L202.7817 283.7629L202.7817 283.7629L196.8155 293.7066C 195.0478 295.1208 193.6777 295.3418 192.9706 294.6347L192.9706 294.6347L192.5729 294.2369L192.5729 294.2369L191.7774 295.0324L191.7774 295.0324L196.2852 299.5402L196.2852 299.5402L197.0807 298.7447L197.0807 298.7447L196.683 298.347C 195.9758 297.6399 196.5062 296.8444 197.7436 295.9605L197.7436 295.9605L208.3502 289.3314L208.3502 289.3314L208.4828 289.4639L208.4828 289.4639L201.4559 300.9986C 200.9256 301.8825 200.1743 301.8383 199.4672 301.1312L199.4672 301.1312L198.8043 300.4683z" stroke="none" fill="#4055FF" fill-rule="evenodd" fill-opacity="0.2980392" /><path transform="matrix(1 0 0 -1 0 843)" d="M214.9793 318.2344L219.4872 322.7422L219.4872 322.7422L220.2827 321.9467L220.2827 321.9467L219.7523 321.4164C 219.0452 320.7093 219.001 319.6928 219.8849 318.1018L219.8849 318.1018L229.1657 302.457L229.1657 302.457L228.3702 301.6616L228.3702 301.6616L215.9074 309.3513L215.9074 309.3513L223.4646 296.756L223.4646 296.756L222.6691 295.9605L222.6691 295.9605L207.4221 305.1087C 206.0079 306.1693 204.6379 306.3019 204.1076 305.7716L204.1076 305.7716L203.5772 305.2413L203.5772 305.2413L202.7817 306.0368L202.7817 306.0368L207.5547 310.8098L207.5547 310.8098L208.3502 310.0143L208.3502 310.0143L207.8199 309.4839C 207.1128 308.7768 207.6431 307.9813 208.8806 307.0974L208.8806 307.0974L219.4872 300.4683L219.4872 300.4683L219.7523 300.7335L219.7523 300.7335L213.7861 310.6772C 212.0183 312.0914 210.6483 312.3123 209.9412 311.6052L209.9412 311.6052L209.5435 311.2075L209.5435 311.2075L208.748 312.003L208.748 312.003L213.2558 316.5108L213.2558 316.5108L214.0513 315.7153L214.0513 315.7153L213.6535 315.3176C 212.9464 314.6104 213.4767 313.8149 214.7142 312.9311L214.7142 312.9311L225.3208 306.3019L225.3208 306.3019L225.4534 306.4345L225.4534 306.4345L218.4265 317.9692C 217.8962 318.8531 217.1449 318.8089 216.4378 318.1018L216.4378 318.1018L215.7748 317.4389z" stroke="none" fill="#4055FF" fill-rule="evenodd" fill-opacity="0.2980392" /><path transform="matrix(1 0 0 -1 0 843)" d="M231.9499 335.205L236.4577 339.7128L236.4577 339.7128L237.2532 338.9173L237.2532 338.9173L236.7229 338.3869C 236.0158 337.6798 235.9716 336.6634 236.8555 335.0724L236.8555 335.0724L246.1363 319.4276L246.1363 319.4276L245.3408 318.6321L245.3408 318.6321L232.878 326.3219L232.878 326.3219L240.4352 313.7266L240.4352 313.7266L239.6397 312.9311L239.6397 312.9311L224.3927 322.0793C 222.9785 323.1399 221.6085 323.2725 221.0782 322.7422L221.0782 322.7422L220.5478 322.2119L220.5478 322.2119L219.7523 323.0074L219.7523 323.0074L224.5253 327.7803L224.5253 327.7803L225.3208 326.9848L225.3208 326.9848L224.7905 326.4545C 224.0834 325.7474 224.6137 324.9519 225.8511 324.068L225.8511 324.068L236.4577 317.4389L236.4577 317.4389L236.7229 317.704L236.7229 317.704L230.7567 327.6477C 228.9889 329.062 227.6189 329.2829 226.9118 328.5758L226.9118 328.5758L226.514 328.1781L226.514 328.1781L225.7185 328.9736L225.7185 328.9736L230.2263 333.4814L230.2263 333.4814L231.0219 332.6859L231.0219 332.6859L230.6241 332.2881C 229.917 331.581 230.4473 330.7855 231.6848 329.9016L231.6848 329.9016L242.2914 323.2725L242.2914 323.2725L242.424 323.4051L242.424 323.4051L235.3971 334.9398C 234.8667 335.8237 234.1154 335.7795 233.4083 335.0724L233.4083 335.0724L232.7454 334.4095z" stroke="none" fill="#4055FF" fill-rule="evenodd" fill-opacity="0.2980392" /><path transform="matrix(1 0 0 -1 0 843)" d="M256.08 328.841C 255.0193 327.7803 253.3399 327.6035 252.1025 328.841C 250.8651 330.0784 251.0418 331.7578 252.1025 332.8185C 253.1632 333.8791 255.0193 333.8791 256.08 332.8185C 257.3174 331.581 257.1406 329.9016 256.08 328.841z" stroke="none" fill="#4055FF" fill-rule="evenodd" fill-opacity="0.2980392" /><path transform="matrix(1 0 0 -1 0 843)" d="M257.2732 365.036C 253.5609 368.7484 254.4448 373.3446 257.2732 376.173C 260.2784 379.1782 263.0185 379.4434 264.4327 378.0292C 265.1398 377.3221 265.4933 376.4382 264.4327 375.3775C 263.7256 374.6704 262.9301 374.4936 262.0462 375.3775C 261.8694 375.5543 261.5601 376.1288 261.3833 376.3056C 260.6761 377.0127 259.8807 377.1895 257.9361 375.2449C 255.8148 373.1236 255.5496 370.4719 258.7316 367.2899L258.7316 367.2899L261.3833 364.6383L261.3833 364.6383L266.9518 370.2068L266.9518 370.2068L267.7473 369.4113L267.7473 369.4113L262.1788 363.8428L262.1788 363.8428L274.3764 351.6452C 275.0835 350.9381 275.9232 351.0707 276.6303 351.7778L276.6303 351.7778L279.8123 354.9598L279.8123 354.9598L280.6078 354.1643L280.6078 354.1643L270.9292 344.4857L270.9292 344.4857L270.1337 345.2813L270.1337 345.2813L272.3876 347.5352C 273.2715 348.419 273.2273 349.0819 272.5202 349.7891L272.5202 349.7891L260.3226 361.9866L260.3226 361.9866L256.2126 357.8766L256.2126 357.8766L255.4171 358.6721L255.4171 358.6721L259.5271 362.7821z" stroke="none" fill="#4055FF" fill-rule="evenodd" fill-opacity="0.2980392" /><path transform="matrix(1 0 0 -1 0 843)" d="M277.6909 373.2562C 275.0393 375.9078 275.9232 379.7085 278.7516 382.537C 280.3426 384.128 282.5965 385.056 283.1268 385.5864C 283.6572 386.1167 283.7897 386.5144 283.7897 387.5751L283.7897 387.5751L288.6953 383.7302L288.6953 383.7302L288.0324 382.8021C 285.0272 384.3931 281.801 383.9954 279.6797 381.8741C 277.3816 379.576 276.8954 377.2336 278.4865 375.6427C 279.9006 374.2285 281.1823 374.0075 283.1268 375.2449C 284.8946 375.952 287.5905 377.4104 289.8885 378.2943C 292.0099 379.0014 294.308 378.913 295.7222 377.4988C 298.3738 374.8472 298.0645 371.3558 294.5289 367.8203C 292.2308 365.5222 290.5956 365.2128 289.8885 364.5057C 289.3582 363.9754 289.0489 363.0473 288.6953 361.9867L288.6953 361.9867L283.392 366.4944L283.392 366.4944L284.0549 367.4225C 287.4137 365.1245 290.5515 365.4338 293.7335 368.6158C 296.2083 371.0907 296.6945 373.3445 294.9267 375.1123C 293.6893 376.3498 292.0099 376.2614 290.9492 375.9078C 288.4743 374.8472 285.2924 373.3446 282.9943 372.4607C 280.6962 371.5768 278.9284 372.0187 277.6909 373.2562z" stroke="none" fill="#4055FF" fill-rule="evenodd" fill-opacity="0.2980392" /><path transform="matrix(1 0 0 -1 0 843)" d="M298.3738 393.4088C 297.3132 398.0049 297.8435 401.6288 299.9648 403.7502C 301.7326 405.5179 303.6771 405.6064 304.7378 404.5457C 305.6217 403.6618 305.7543 402.6453 304.8704 401.7614C 303.9865 400.8776 302.9258 400.9659 302.2188 402.0266C 301.6884 402.5569 301.2465 402.9105 300.3625 402.0266C 298.9484 400.6124 298.5064 396.4581 300.0974 391.6852L300.0974 391.6852L307.2569 384.5257C 307.964 383.8186 308.8036 383.9512 309.5108 384.6583L309.5108 384.6583L312.4276 387.5751L312.4276 387.5751L313.2231 386.7796L313.2231 386.7796L303.412 376.9685L303.412 376.9685L302.6165 377.764L302.6165 377.764L305.2681 380.4156C 306.152 381.2995 306.1078 381.9624 305.4007 382.6696L305.4007 382.6696L294.3964 393.6739C 293.6893 394.381 292.8937 394.5578 292.0099 393.6739L292.0099 393.6739L289.4908 391.1548L289.4908 391.1548L288.6953 391.9503L288.6953 391.9503L289.756 393.011C 290.9934 394.2484 292.6728 396.5465 293.2031 397.784L293.2031 397.784L293.6009 398.1817z" stroke="none" fill="#4055FF" fill-rule="evenodd" fill-opacity="0.2980392" /><path transform="matrix(1 0 0 -1 0 843)" d="M323.9623 396.7233C 322.9016 395.6627 321.2222 395.4859 319.9848 396.7233C 318.7474 397.9608 318.9241 399.6401 319.9848 400.7008C 321.0455 401.7614 322.9016 401.7614 323.9623 400.7008C 325.1997 399.4633 325.0229 397.784 323.9623 396.7233z" stroke="none" fill="#4055FF" fill-rule="evenodd" fill-opacity="0.2980392" /><path transform="matrix(1 0 0 -1 0 843)" d="M344.2474 432.6532C 348.6669 428.2338 348.932 421.9582 345.0429 418.0691C 340.9771 414.0032 334.7015 414.6219 330.4588 418.8646C 326.5698 422.7537 325.5975 429.3828 329.6633 433.4487C 333.906 437.6913 340.3583 436.5423 344.2474 432.6532zM332.7127 420.8533C 337.309 416.2571 341.5958 416.213 344.2474 418.8646C 347.2526 421.8698 346.5013 426.1567 342.2587 430.3993C 337.6625 434.9955 333.1105 435.3049 330.4589 432.6532C 327.9839 430.1783 328.1165 425.4495 332.7127 420.8533z" stroke="none" fill="#4055FF" fill-rule="evenodd" fill-opacity="0.2980392" /><path transform="matrix(1 0 0 -1 0 843)" d="M349.2856 444.3205C 348.2249 448.9167 348.7552 452.5406 350.8766 454.6619C 352.6443 456.4297 354.5889 456.5181 355.6495 455.4574C 356.5334 454.5735 356.666 453.5571 355.7821 452.6732C 354.8983 451.7893 353.8376 451.8777 353.1305 452.9384C 352.6002 453.4687 352.1582 453.8222 351.2743 452.9384C 349.8601 451.5241 349.4182 447.3699 351.0092 442.5969L351.0092 442.5969L358.1686 435.4374C 358.8757 434.7303 359.7154 434.8629 360.4225 435.57L360.4225 435.57L363.3394 438.4868L363.3394 438.4868L364.1348 437.6913L364.1348 437.6913L354.3237 427.8802L354.3237 427.8802L353.5282 428.6757L353.5282 428.6757L356.1799 431.3274C 357.0637 432.2112 357.0196 432.8742 356.3124 433.5813L356.3124 433.5813L345.3081 444.5856C 344.601 445.2928 343.8055 445.4695 342.9216 444.5856L342.9216 444.5856L340.4025 442.0666L340.4025 442.0666L339.6071 442.8621L339.6071 442.8621L340.6677 443.9227C 341.9052 445.1602 343.5845 447.4583 344.1149 448.6957L344.1149 448.6957L344.5126 449.0934z" stroke="none" fill="#4055FF" fill-rule="evenodd" fill-opacity="0.2980392" /><path transform="matrix(1 0 0 -1 0 843)" d="M364.9304 458.3742C 367.0516 456.2529 370.1011 455.8552 372.2224 457.9765C 374.5204 460.2746 374.2995 462.7936 371.8246 465.2685C 368.8194 468.2737 366.0794 468.0086 364.1348 466.064C 362.1903 464.1195 361.9251 461.3795 364.9304 458.3742zM378.5864 457.7113C 381.5916 460.0094 383.9338 460.0536 385.8784 458.1091C 388.53 455.4574 388.1323 451.6125 383.3593 446.8395C 379.647 443.1272 375.3602 442.3759 373.4156 444.3205C 372.1782 445.5579 371.6478 447.7676 372.8853 450.4193C 371.2943 449.8889 370.0568 449.8005 369.173 450.6844C 368.1123 451.7451 368.1123 453.3361 368.6426 454.9271C 366.6981 454.7503 364.4884 455.1039 363.0742 456.5181C 360.4225 459.1697 359.9806 463.5008 363.3394 466.8595C 364.7535 468.2737 366.4771 469.3786 368.2449 469.3786C 368.5984 471.4999 369.1288 472.9141 369.8359 473.6212C 370.7198 474.5051 371.8246 474.019 372.355 473.4886C 373.0621 472.7816 373.3272 472.0745 372.6201 471.3673C 372.0898 470.837 371.4711 470.7486 370.764 471.1022C 370.0569 471.4557 369.4824 470.616 369.3055 469.3786C 370.7198 469.3786 372.4434 468.3621 373.6808 467.1247C 375.8021 465.0034 376.7302 460.8933 373.0179 457.181C 371.9572 456.1204 370.7198 455.5016 369.8359 455.3248C 369.4823 454.2642 369.7475 453.2919 370.1011 452.9384C 370.8082 452.2313 371.5153 452.2312 372.2224 452.9384C 374.874 454.8829 376.9954 456.4739 378.5864 457.7113zM374.2111 451.2148C 373.3272 448.9167 373.725 447.4583 375.1392 446.0441C 376.5534 444.6298 379.647 444.7182 382.829 447.9002C 385.8342 450.9054 386.7623 453.778 384.8177 455.7226C 383.5803 456.96 382.4312 457.2252 381.3705 456.5181C 379.2493 455.1039 376.8627 453.1593 374.2111 451.2148z" stroke="none" fill="#4055FF" fill-rule="evenodd" fill-opacity="0.2980392" /><path transform="matrix(1 0 0 -1 0 843)" d="M391.8446 464.6056C 390.7839 463.545 389.1046 463.3682 387.8671 464.6056C 386.6297 465.8431 386.8065 467.5224 387.8671 468.5831C 388.9278 469.6438 390.7839 469.6438 391.8446 468.5831C 393.082 467.3457 392.9053 465.6663 391.8446 464.6056z" stroke="none" fill="#4055FF" fill-rule="evenodd" fill-opacity="0.2980392" /><path transform="matrix(1 0 0 -1 0 843)" d="M404.3074 500.403C 403.777 500.9333 403.8654 501.0217 403.5119 501.7288C 402.9816 502.6126 400.8602 503.0546 398.7389 500.9333C 396.0873 498.2816 396.7502 493.3761 400.9928 489.1334C 404.8819 485.2443 408.9478 484.0953 412.6601 487.8076C 415.1349 490.2825 415.0024 493.8622 413.5881 496.6906L413.5881 496.6906L414.5162 497.0884C 416.4608 493.7296 416.6818 489.7079 413.323 486.3492C 409.0803 482.1065 403.6887 482.1949 398.7389 487.1447C 394.3195 491.5641 393.9659 497.7513 398.2086 501.9939C 401.2138 504.9991 404.9703 504.7782 406.5613 503.1872C 407.6219 502.1265 407.5778 501.2868 406.6938 500.403C 405.9868 499.6958 405.0145 499.6958 404.3074 500.403z" stroke="none" fill="#4055FF" fill-rule="evenodd" fill-opacity="0.2980392" /><path transform="matrix(1 0 0 -1 0 843)" d="M422.2061 495.7625L421.4105 496.558L421.4105 496.558L422.0734 497.2209C 422.9573 498.1049 422.9131 498.7678 422.2061 499.4749L422.2061 499.4749L410.804 510.877C 410.2736 511.4073 409.8759 511.5399 409.3455 511.0096L409.3455 511.0096L408.2849 509.9489L408.2849 509.9489L407.4894 510.7444L407.4894 510.7444L408.4174 511.6725C 409.3013 512.5563 409.9642 513.4844 410.141 514.7219L410.141 514.7219L410.4062 514.9871L410.4062 514.9871L413.4556 511.9376C 413.2788 515.2964 413.9417 517.7271 415.7095 519.4948C 418.7147 522.5001 421.6757 522.2791 424.8577 519.0971L424.8577 519.0971L433.343 510.6118C 434.0501 509.9047 434.8898 510.0373 435.5969 510.7444L435.5969 510.7444L436.2598 511.4073L436.2598 511.4073L437.0553 510.6118L437.0553 510.6118L431.4868 505.0433L431.4868 505.0433L430.6913 505.8388L430.6913 505.8388L431.3542 506.5017C 432.2381 507.3856 432.1939 508.0485 431.4868 508.7556L431.4868 508.7556L422.6038 517.6387C 420.4824 519.76 418.4053 520.0693 416.6376 518.3016C 415.0466 516.7106 414.3837 513.838 414.914 510.4792L414.914 510.4792L424.0622 501.331C 424.7693 500.6239 425.609 500.7565 426.3161 501.4636L426.3161 501.4636L426.979 502.1265L426.979 502.1265L427.7745 501.331z" stroke="none" fill="#4055FF" fill-rule="evenodd" fill-opacity="0.2980392" /></g><g clip-path="url(#3)"></g><g clip-path="url(#4)"></g></g></g></g></svg>