<svg xmlns="http://www.w3.org/2000/svg" xmlns:xlink="http://www.w3.org/1999/xlink" id="body_5" preserveAspectRatio="xMinYMin meet" viewBox="0 0 777 1124"><defs><clipPath id="1"><path d="M0 843L0 -0.3599854L0 -0.3599854L583.68 -0.3599854L583.68 -0.3599854L583.68 843L583.68 843L0 843z" /></clipPath><clipPath id="2"><path d="M173.3264 608.2766L478.7969 302.8062L478.7969 302.8062L410.354 234.3633L410.354 234.3633L104.8835 539.8337z" /></clipPath><clipPath id="3"><path d="M72 807L144 807L144 807L144 799.032L144 799.032L72 799.032z" /></clipPath><clipPath id="4"><path d="M455.68 807L511.68 807L511.68 807L511.68 799.032L511.68 799.032L455.68 799.032z" /></clipPath></defs><g transform="matrix(1.333333 0 0 1.333333 0 0)"><g><g clip-path="url(#1)"><g transform="matrix(0.24 0 0 0.24 0 -0.3599854)"><g transform="matrix(1 0 0 1 0 0)"><image x="0" y="0" xlink:href="img_09.png" width="2432" height="3514" /></g></g><g clip-path="url(#2)"><path transform="matrix(1 0 0 -1 0 843)" d="M131.7818 311.2699L141.3277 320.8159L141.3277 320.8159L150.2108 311.9329L150.2108 311.9329L140.6648 302.3869zM129.2627 310.0767L120.1145 300.9285L120.1145 300.9285L116.9325 299.8678C 118.7887 298.1884 121.131 295.9345 123.9594 293.1061C 126.7878 290.2777 128.5998 288.4215 129.3953 287.5376C 130.1908 286.6537 130.5885 286.1234 130.5885 285.9467L130.5885 285.9467L131.9144 288.8635L131.9144 288.8635L130.1908 290.587L130.1908 290.587L139.4716 299.8678C 146.1891 293.1503 150.6527 288.5983 152.8624 286.2118L152.8624 286.2118L154.1882 289.1286C 152.4205 290.7196 148.1336 294.9181 141.3277 301.724L141.3277 301.724L150.8737 311.2699L150.8737 311.2699L153.3927 308.7509L153.3927 308.7509L154.586 311.5351C 153.4369 312.5074 152.3763 313.4796 151.404 314.4519L151.404 314.4519L143.8468 322.0091L143.8468 322.0091L143.9794 323.9979L143.9794 323.9979L140.1345 323.6001L140.1345 323.6001L140.3996 321.2136L140.3996 321.2136L131.1189 311.9329L131.1189 311.9329L125.8155 317.2361L125.8155 317.2361L125.8156 319.0923L125.8156 319.0923L121.5729 317.5013C 123.4291 315.8219 125.9923 313.3471 129.2627 310.0767zM120.6448 300.133L129.9256 309.4138L129.9256 309.4138L138.8087 300.5307L138.8087 300.5307L129.5279 291.25z" stroke="none" fill="#4055FF" fill-rule="evenodd" fill-opacity="0.2980392" /><path transform="matrix(1 0 0 -1 0 843)" d="M154.1882 338.1842L156.4421 338.3168L156.4421 338.3168L157.2376 339.9078L157.2376 339.9078L162.5409 345.2111L162.5409 345.2111L168.9049 338.8471L168.9049 338.8471L162.2758 332.218L162.2758 332.218L164.5297 332.3506L164.5297 332.3506L165.4578 334.0742L165.4578 334.0742L169.5678 338.1842L169.5678 338.1842L178.4509 329.3012L178.4509 329.3012L169.9656 320.8159L169.9656 320.8159L172.0869 320.8159C 172.6172 321.8766 173.3685 322.893 174.3408 323.8653L174.3408 323.8653L189.9855 339.51L189.9855 339.51L185.2126 339.51L185.2126 339.51L185.3452 336.1955L185.3452 336.1955L180.307 331.1573L180.307 331.1573L171.424 340.0404L171.424 340.0404L178.9812 347.5976L178.9812 347.5976L174.4734 347.5976L174.4734 347.5976L174.606 344.5482L174.606 344.5482L170.7611 340.7033L170.7611 340.7033L164.3971 347.0673L164.3971 347.0673L173.1476 355.8177L173.1476 355.8177L168.6397 355.8177L168.6397 355.8177L168.7723 352.7683zM174.0756 340.3055L174.0756 339.51C 177.4344 339.51 179.9314 339.1344 181.5666 338.3831C 183.2017 337.6318 183.7984 338.0516 183.3564 339.6426C 182.9145 341.2336 181.9643 342.007 180.5059 341.9628C 179.0475 341.9186 176.9041 341.3662 174.0756 340.3055zM175.534 309.679L176.5947 312.5958L176.5947 312.5958L174.0756 315.1148L174.0756 315.1148L194.8911 335.9303L194.8911 335.9303L197.5428 333.2787L197.5428 333.2787L198.8686 335.9303C 196.924 337.6981 195.0679 339.4659 193.3001 341.2336L193.3001 341.2336L172.3521 362.1817L172.3521 362.1817L172.4846 363.9052L172.4846 363.9052L169.0375 363.9052L169.0375 363.9052L169.0375 361.5188L169.0375 361.5188L148.3546 340.8359L148.3546 340.8359L145.1726 340.0404C 147.4707 337.919 149.4595 336.0187 151.1388 334.3393L151.1388 334.3393L169.9656 315.5126C 171.8217 313.6564 173.6779 311.7119 175.534 309.679zM149.0175 340.1729L169.833 360.9884L169.833 360.9884L194.2282 336.5932L194.2282 336.5932L173.4127 315.7777z" stroke="none" fill="#4055FF" fill-rule="evenodd" fill-opacity="0.2980392" /><path transform="matrix(1 0 0 -1 0 843)" d="M200.8573 364.1704L212.6572 375.9703L212.6572 375.9703L216.1043 372.5231L216.1043 372.5231L204.3045 360.7233zM189.0575 357.939C 193.8304 370.1366 194.1398 376.5448 193.4327 383.2623C 205.9839 382.0249 211.6849 384.2788 216.6347 387.1072C 215.8392 387.9027 216.1043 389.4053 217.4302 391.615L217.4302 391.615L216.8998 392.1454C 210.8894 386.4885 203.5532 383.4833 193.3001 384.1904L193.3001 384.1904L194.2282 386.4443L194.2282 386.4443L189.3226 385.2511C 191.2672 381.1852 191.9301 369.3853 188.3946 358.0716zM194.4933 378.2242L194.3608 377.5613C 197.1892 377.2077 199.3768 376.6995 200.9236 376.0366C 202.4704 375.3737 203.067 375.7493 202.7135 377.1635C 202.3599 378.5777 201.6528 379.329 200.5922 379.4174C 199.5315 379.5058 197.4986 379.1081 194.4933 378.2242zM217.8279 362.0491L212.6572 352.3705L212.6572 352.3705L204.9674 360.0604L204.9674 360.0604L216.7672 371.8602L216.7672 371.8602L217.9605 370.667L217.9605 370.667L218.756 373.8489C 218.4024 374.0257 215.795 376.5448 210.9336 381.4062L210.9336 381.4062L211.4639 383.2623L211.4639 383.2623L207.3539 383.1297L207.3539 383.1297L207.619 380.4781L207.619 380.4781L196.2169 369.076L196.2169 369.076L192.9024 368.1479C 194.2282 366.9988 195.6866 365.6288 197.2776 364.0378L197.2776 364.0378L209.21 352.1054C 210.4475 350.868 211.022 349.9399 210.9336 349.3212L210.9336 349.3212L214.7785 348.3931C 214.3366 349.5421 215.6182 354.0057 218.6234 361.7839zM209.21 361.3862L209.3426 360.7233C 213.4085 362.1375 217.2976 363.3307 221.0099 364.303C 224.7222 365.2753 227.639 365.7614 229.7603 365.7614C 231.8817 365.7614 232.4783 366.358 231.5502 367.5513C 230.6221 368.7445 229.451 369.2086 228.0368 368.9434C 226.6226 368.6782 224.1035 367.7943 220.4796 366.2917C 221.717 370.0041 222.4683 373.3186 224.0593 374.9096L224.0593 374.9096L219.6841 374.777C 220.126 373.0977 220.0818 370.1366 219.5515 365.894C 215.9276 364.3914 212.4804 362.8888 209.21 361.3862zM196.7473 368.2805L208.5471 380.0803L208.5471 380.0803L211.9943 376.6332L211.9943 376.6332L200.1944 364.8333z" stroke="none" fill="#4055FF" fill-rule="evenodd" fill-opacity="0.2980392" /><path transform="matrix(1 0 0 -1 0 843)" d="M255.4814 415.0822L255.614 416.8057L255.614 416.8057L251.9017 416.5406L251.9017 416.5406L252.1668 414.1541L252.1668 414.1541L245.5377 407.5249L245.5377 407.5249L242.2231 406.862C 246.4658 402.9729 252.9181 396.5206 256.8072 392.278L256.8072 392.278L258.0004 395.0622L258.0004 395.0622L255.3488 397.7138L255.3488 397.7138L262.2431 404.6081L262.2431 404.6081L265.2925 401.5587L265.2925 401.5587L266.4857 404.343C 265.5135 405.1385 261.8453 408.7182 255.4814 415.0822zM246.2006 406.862L253.0949 413.7563L253.0949 413.7563L261.5802 405.271L261.5802 405.271L254.6859 398.3767zM235.594 424.6281L235.8591 426.4843L235.8591 426.4843L232.0143 426.0865L232.0143 426.0865L232.2794 423.7L232.2794 423.7L221.6728 413.0934L221.6728 413.0934L218.3582 412.1653C 222.2473 408.6298 226.4016 404.4755 231.8817 398.6419L231.8817 398.6419L233.2075 401.2935L233.2075 401.2935L231.3513 403.1497L231.3513 403.1497L242.3557 414.1541L242.3557 414.1541L244.477 412.0327L244.477 412.0327L245.6703 414.817C 243.2838 417.0267 239.925 420.2971 235.594 424.6281zM222.2031 412.2979L233.2075 423.3023L233.2075 423.3023L241.6928 414.817L241.6928 414.817L230.6884 403.8126zM240.6321 399.9677L240.8973 401.8239L240.8973 401.8239L237.0524 401.4261L237.0524 401.4261L237.185 399.1722L237.185 399.1722L230.9536 392.9409L230.9536 392.9409L227.7716 392.1454C 231.8375 388.433 238.3782 381.8923 242.6209 377.2961L242.6209 377.2961L243.8141 380.0803L243.8141 380.0803L240.7647 383.1297L240.7647 383.1297L247.2613 389.6263L247.2613 389.6263L250.1781 386.7095L250.1781 386.7095L251.2387 389.6263C 249.029 391.6592 245.4935 395.1064 240.6321 399.9677zM231.6165 392.278L238.1131 398.7745L238.1131 398.7745L246.5983 390.2892L246.5983 390.2892L240.1018 383.7927z" stroke="none" fill="#4055FF" fill-rule="evenodd" fill-opacity="0.2980392" /><path transform="matrix(1 0 0 -1 0 843)" d="M264.8948 442.7919C 266.2206 440.9358 267.5022 438.5051 268.7396 435.4999L268.7396 435.4999L258.3982 425.1584L258.3982 425.1584L260.5195 425.1584L260.5195 425.1584L261.4476 426.882L261.4476 426.882L269.1374 434.5718C 270.8168 430.7711 271.9658 427.5007 272.5845 424.7607C 275.6781 426.7936 279.3021 428.8265 283.4563 430.8595C 283.5447 424.7607 280.8047 417.778 275.2362 409.9114L275.2362 409.9114L275.8991 409.5137C 282.0863 416.7615 285.7986 424.4513 285.9754 432.0527C 291.1019 434.3508 295.2341 435.6104 298.3719 435.8313C 301.5096 436.0523 302.5703 436.8036 301.5538 438.0852C 300.5374 439.3669 298.8359 439.6541 296.4494 438.947C 294.0629 438.2399 290.4832 436.6489 285.7102 434.1741C 285.0915 437.9748 283.8099 442.35 281.8653 447.2997L281.8653 447.2997L289.0248 454.4592L289.0248 454.4592L284.517 454.4592L284.517 454.4592L284.517 451.2772L284.517 451.2772L270.7284 437.4886L270.7284 437.4886L269.0048 441.8638L269.0048 441.8638L269.27 443.9852zM271.1262 436.5605L279.6115 445.0458C 281.4676 440.538 282.6608 436.428 283.1912 432.7156C 281.2466 431.655 278.2856 429.843 274.3081 427.2798C 273.4242 430.285 272.3636 433.3786 271.1262 436.5605zM257.205 452.0727C 259.7682 451.8076 261.8674 451.1667 263.5026 450.1503C 265.1378 449.1338 265.867 449.4211 265.6902 451.012C 265.5135 452.603 264.6959 453.4648 263.2375 453.5974C 261.7791 453.73 259.724 453.4427 257.0724 452.7356zM278.5508 453.266L279.2137 453.6637C 278.595 457.6412 278.9043 460.337 280.1418 461.7512L280.1418 461.7512L275.3688 461.7513L275.3688 461.7513L275.5013 458.7018L275.5013 458.7018L255.614 438.8145L255.614 438.8145L254.023 440.4055L254.023 440.4055L253.3601 439.7425C 255.0394 437.5328 255.7907 435.5441 255.614 433.7763C 255.4372 432.0085 255.9012 431.3235 257.0061 431.7213C 258.111 432.119 258.7076 432.8924 258.796 434.0415C 258.8843 435.1905 258.0446 436.5605 256.2769 438.1516L256.2769 438.1516L276.4294 458.3041z" stroke="none" fill="#4055FF" fill-rule="evenodd" fill-opacity="0.2980392" /><path transform="matrix(1 0 0 -1 0 843)" d="M295.2562 485.351C 301.0014 483.8484 306.3489 483.3622 311.2987 483.8925L311.2987 483.8925L311.1661 481.1083L311.1661 481.1083L296.7146 466.6568C 297.1565 473.2859 296.6704 479.5173 295.2562 485.351zM291.0135 486.942C 293.6652 481.8154 296.2726 471.1646 293.2674 456.8457L293.2674 456.8457L293.9304 456.7131C 295.433 460.5138 296.361 463.74 296.7146 466.3916L296.7146 466.3916L299.1011 466.3917L299.1011 466.3917L299.6314 468.2478L299.6314 468.2478L305.3325 473.9489L305.3325 473.9489L311.9616 467.3197L311.9616 467.3197L302.8134 458.1715L302.8134 458.1715L304.9347 458.1715C 305.465 459.2322 306.2163 460.2487 307.1886 461.2209L307.1886 461.2209L312.6245 466.6568L312.6245 466.6568L320.3143 458.967L320.3143 458.967L307.7189 446.3716L307.7189 446.3716L309.8403 446.3716C 310.3706 447.4323 311.1219 448.4488 312.0942 449.4211L312.0942 449.4211L336.6219 473.9489L336.6219 473.9489L331.3187 473.9489L331.3187 473.9489L331.5838 470.2365L331.5838 470.2365L322.1705 460.8232L322.1705 460.8232L314.4807 468.513L314.4807 468.513L324.4244 478.4567L324.4244 478.4567L319.784 478.3241L319.784 478.3241L319.784 475.1421L319.784 475.1421L313.8177 469.1759L313.8177 469.1759L307.1886 475.805L307.1886 475.805L315.2762 483.8925L315.2762 483.8925L312.6245 484.1577C 315.9833 484.688 318.8559 485.351 321.2424 486.1465C 320.8004 487.1187 321.1098 488.5771 322.1705 490.5217L322.1705 490.5217L321.7727 490.9194C 311.3429 485.0858 300.7805 485.13 295.1236 486.5442L295.1236 486.5442L295.6539 488.4004z" stroke="none" fill="#4055FF" fill-rule="evenodd" fill-opacity="0.2980392" /><path transform="matrix(1 0 0 -1 0 843)" d="M342.9859 521.1483L343.7814 521.4135C 343.4279 526.0096 343.5163 528.4845 345.1073 530.4291L345.1073 530.4291L339.9365 530.2965L339.9365 530.2965L340.3343 527.5122L340.3343 527.5122L330.9209 518.0989C 330.037 521.1041 329.9044 522.8276 330.5232 523.2696L330.5232 523.2696L326.5457 521.9438C 328.667 518.4082 330.6558 512.7955 330.1254 505.9013L330.1254 505.9013L330.9209 505.9013C 332.0699 509.1716 332.2025 512.9282 331.3187 517.1708L331.3187 517.1708L341.2624 527.1145zM334.5006 519.027C 338.7433 514.7843 339.5388 508.7739 332.6445 498.3441L332.6445 498.3441L333.3074 497.9463C 339.583 505.2825 341.4391 511.8233 338.8759 517.5685C 343.3837 515.1821 348.6428 515.0495 354.6532 517.1708C 353.9461 518.4082 354.4764 519.8224 356.2442 521.4135L356.2442 521.4135L355.8464 521.8112C 350.1012 517.6569 344.356 516.5079 338.6107 518.364C 338.0804 519.2479 337.992 520.0435 338.3455 520.7505zM315.5413 508.8181L315.8065 508.0226C 318.1046 508.5529 320.0712 508.6192 321.7064 508.2215C 323.3416 507.8237 324.0045 508.2215 323.6952 509.4147C 323.3858 510.608 322.6124 511.293 321.375 511.4697C 320.1375 511.6465 318.193 510.7626 315.5413 508.8181zM325.7502 515.5798C 325.7502 508.5087 325.5955 504.5533 325.2861 503.7137C 324.9768 502.874 324.6453 502.2773 324.2918 501.9238C 323.9382 501.5703 322.8334 500.9073 320.9772 499.9351L320.9772 499.9351L321.375 499.2722C 323.3195 500.156 324.7779 500.3328 325.7502 499.8025C 326.7225 499.2722 327.4958 498.2778 328.0704 496.8194C 328.6449 495.361 329.6835 494.8085 331.1861 495.1621C 332.6887 495.5156 332.7992 496.289 331.5175 497.4823C 330.2359 498.6755 329.2415 499.8025 328.5344 500.8631C 327.8273 501.9238 327.3854 503.5148 327.2086 505.6361C 327.0318 507.7574 326.7667 511.1162 326.4131 515.7124zM344.9747 487.87L345.9028 490.6543L345.9028 490.6543L337.4175 499.1396L337.4175 499.1396L350.4106 512.1327L350.4106 512.1327L358.8959 503.6474L358.8959 503.6474L359.6913 506.5642C 358.1887 507.89 355.8906 510.0997 352.7971 513.1933L352.7971 513.1933L353.3274 515.0494L353.3274 515.0494L349.2173 514.6517L349.2173 514.6517L349.4825 512.2653L349.4825 512.2653L337.1523 499.9351L337.1523 499.9351L334.1029 498.7418C 337.992 495.2063 340.9088 492.2895 344.9747 487.87zM344.1792 502.9844L346.1679 500.9957C 347.9357 498.8744 348.9963 496.6205 349.3499 494.234C 349.7034 491.8475 349.2836 489.1296 348.0904 486.0801C 346.8971 483.0308 345.505 480.2686 343.914 477.7938L343.914 477.7938L344.4443 477.5286C 347.2728 481.0641 349.3057 484.4229 350.5432 487.6049C 351.7806 490.7869 352.1563 493.549 351.6701 495.8913C 351.184 498.2336 350.2338 500.377 348.8196 502.3215L348.8196 502.3215L348.9521 504.3103zM353.3274 497.0182C 356.3326 498.786 358.9843 500.1118 361.2823 500.9957C 363.5804 501.8796 365.525 502.3215 367.116 502.3215C 368.707 502.3215 369.4141 502.8077 369.2373 503.78C 369.0605 504.7522 368.3313 505.2605 367.0497 505.3046C 365.7681 505.3488 364.0224 504.7964 361.8127 503.6474C 359.603 502.4983 356.5977 500.4654 352.7971 497.5486z" stroke="none" fill="#4055FF" fill-rule="evenodd" fill-opacity="0.2980392" /><path transform="matrix(1 0 0 -1 0 843)" d="M371.7563 549.3884L380.5068 558.1388L380.5068 558.1388L384.4843 554.1614L384.4843 554.1614L375.7338 545.4109zM376.3967 544.748L385.1472 553.4984L385.1472 553.4984L389.2573 549.3884L389.2573 549.3884L380.5068 540.6379zM382.6282 537.1908C 383.6004 535.3346 384.0865 530.3407 384.0865 522.2089L384.0865 522.2089L384.7495 522.0764C 386.1637 530.5616 385.6776 533.9646 386.7382 537.8537zM390.1854 543.4221C 394.428 543.2454 397.5658 542.6266 399.5988 541.566C 401.6317 540.5053 402.4934 540.7484 402.1841 542.2952C 401.8748 543.842 400.9688 544.7922 399.4661 545.1458C 397.9636 545.4993 394.8257 545.1458 390.0528 544.0851zM380.6394 536.793L381.9652 539.1795L381.9652 539.1795L381.1697 539.975L381.1697 539.975L384.6169 543.4222L384.6169 543.4222L393.1022 534.9369C 394.5164 533.5227 392.3067 532.1085 389.655 530.1639L389.655 530.1639L390.1854 529.6335C 392.7486 530.9594 394.7374 531.092 396.1516 530.0313C 397.5658 532.3294 397.3448 534.4066 395.4886 536.2627L395.4886 536.2627L386.473 545.2783L386.473 545.2783L389.9202 548.7255L389.9202 548.7255L391.1134 547.5322L391.1134 547.5322L392.3067 550.0513C 391.5112 550.67 388.3734 553.7194 382.8933 559.1995L382.8933 559.1995L383.4236 561.0557L383.4236 561.0557L379.7113 561.3208L379.7113 561.3208L379.7114 558.6692L379.7114 558.6692L373.7451 552.7029C 373.038 556.9456 372.9938 557.7853 373.8777 559.7298L373.8777 559.7298L370.4305 558.9343L370.4305 558.9343L379.8439 568.3477L379.8439 568.3477L374.8058 568.3477L374.8058 568.3477L374.8058 564.6354L374.8058 564.6354L361.2823 551.1119L361.2823 551.1119L357.57 550.0513C 360.0449 547.9299 363.3816 544.7701 367.58 540.5717C 371.7784 536.3732 374.85 532.4178 376.7945 528.7054C 378.7391 524.9932 379.7997 520.397 379.9765 514.9169L379.9765 514.9169L380.772 514.9169C 381.3907 520.4854 380.8604 525.2141 379.181 529.1032C 377.5016 532.9923 375.093 536.5499 371.9553 539.7761C 368.8174 543.0023 365.3924 546.4716 361.6801 550.1839L361.6801 550.1839L369.7676 558.2714C 370.7399 556.9456 371.8005 554.8243 372.9496 551.9075L372.9496 551.9075L371.0934 550.0513L371.0934 550.0513L368.1766 549.2558C 372.5961 545.1899 376.5735 541.2125 380.6394 536.793zM362.0778 544.4828L361.4149 544.0851C 366.3647 532.5946 368.9721 526.2306 369.2373 524.9932C 369.5024 523.7557 369.4583 522.916 369.1047 522.4741C 368.7512 522.0322 367.6905 521.1041 365.9227 519.6899L365.9227 519.6899L366.4531 519.1595C 368.1324 520.1318 369.4803 520.64 370.4968 520.6842C 371.5133 520.7285 372.6624 519.5794 373.944 517.2371C 375.2256 514.8948 376.5735 514.0772 377.9877 514.7843C 379.402 515.4915 379.7776 516.1322 379.1147 516.7068C 378.4518 517.2813 377.3027 518.3419 375.6675 519.8887C 374.0323 521.4355 372.7949 522.9381 371.9553 524.3965C 371.1155 525.855 367.8231 532.5504 362.0778 544.4828zM353.9903 531.8875L354.1229 531.2245C 357.3049 531.0478 359.6913 530.5616 361.2823 529.7661C 362.8734 528.9706 363.7351 528.9927 363.8677 529.8325C 364.0003 530.6721 363.5583 531.6002 362.5419 532.6167C 361.5254 533.6332 358.6749 533.3901 353.9903 531.8875zM349.3499 542.6267L349.4825 541.9637C 352.3993 541.6986 354.6532 541.1683 356.2442 540.3727C 357.8352 539.5773 358.6086 539.7761 358.5644 540.9694C 358.5202 542.1626 357.9015 543.0465 356.7083 543.621C 355.515 544.1956 353.0622 543.8641 349.3499 542.6267z" stroke="none" fill="#4055FF" fill-rule="evenodd" fill-opacity="0.2980392" /><path transform="matrix(1 0 0 -1 0 843)" d="M403.8414 573.5184C 402.7807 576.7004 401.4991 579.1311 401.3223 582.1363L401.3223 582.1363L397.2122 581.4734C 399.1568 578.6449 400.6152 576.1259 401.5875 573.9161C 399.0242 574.1813 396.4167 574.314 393.7651 574.3139L393.7651 574.3139L393.6325 573.651C 396.9029 573.2091 399.8639 572.5461 402.5156 571.6622C 404.8137 566.8893 406.3604 562.4257 407.1559 558.2714L407.1559 558.2714L407.9514 558.5366C 407.4211 562.6025 406.4488 566.7567 405.0346 570.9993C 406.9791 570.2922 408.769 569.4304 410.4042 568.414C 412.0394 567.3975 412.9233 567.3091 413.0558 568.1488C 413.1884 568.9885 413.0117 569.7398 412.5255 570.4027C 412.0394 571.0657 411.2218 571.618 410.0728 572.06C 408.9237 572.502 406.8466 572.9881 403.8414 573.5184zM414.1828 581.4734C 412.415 585.716 410.8682 589.3842 410.8682 591.1519L410.8682 591.1519L406.7582 590.2238C 408.7028 587.5721 410.3821 584.6554 411.7963 581.4734C 409.0563 581.7385 406.1837 581.7827 403.1785 581.606L403.1785 581.606L403.0458 580.9431C 406.2278 580.5895 409.4099 580.0592 412.5918 579.3521C 414.5364 574.7559 415.7738 570.0713 416.3041 565.2983L416.3041 565.2983L417.0997 565.2983C 417.188 569.2758 416.5251 573.8278 415.1109 578.9543C 417.851 578.1588 420.0386 577.297 421.6737 576.369C 423.3089 575.4409 424.1486 575.3967 424.1928 576.2363C 424.237 577.076 424.0381 577.8937 423.5962 578.6891C 423.1542 579.4846 422.3588 580.0592 421.2097 580.4127C 420.0607 580.7662 417.7184 581.1199 414.1828 581.4734zM426.2479 567.5522C 429.695 569.762 432.0373 570.248 433.2747 569.0106C 434.5121 572.3694 435.175 574.0046 432.877 576.3027L432.877 576.3027L410.4705 598.7091L410.4705 598.7091L410.7357 600.8304L410.7357 600.8304L406.6256 600.4327L406.6256 600.4327L407.0233 597.3833L407.0233 597.3833L387.0034 577.3633L387.0034 577.3633L383.5562 576.5678C 386.915 573.5626 406.0069 554.4707 412.1941 547.9299L412.1941 547.9299L412.9896 551.1119L412.9896 551.1119L387.5337 576.5678L387.5337 576.5678L408.2166 597.2507L408.2166 597.2507L429.8276 575.6398C 432.1257 573.3417 431.5511 572.8555 425.7175 568.0825z" stroke="none" fill="#4055FF" fill-rule="evenodd" fill-opacity="0.2980392" /><path transform="matrix(1 0 0 -1 0 843)" d="" stroke="none" fill="#4055FF" fill-rule="evenodd" fill-opacity="0.2980392" /><path transform="matrix(1 0 0 -1 0 843)" d="" stroke="none" fill="#4055FF" fill-rule="evenodd" fill-opacity="0.2980392" /><path transform="matrix(1 0 0 -1 0 843)" d="M199.4488 301.1438L203.9566 305.6516L203.9566 305.6516L204.7521 304.8561L204.7521 304.8561L204.2217 304.3258C 203.5146 303.6187 203.4704 302.6022 204.3543 301.0112L204.3543 301.0112L213.6351 285.3665L213.6351 285.3665L212.8396 284.571L212.8396 284.571L200.3768 292.2608L200.3768 292.2608L207.9341 279.6654L207.9341 279.6654L207.1386 278.8699L207.1386 278.8699L191.8916 288.0181C 190.4773 289.0788 189.1073 289.2114 188.577 288.681L188.577 288.681L188.0467 288.1507L188.0467 288.1507L187.2512 288.9462L187.2512 288.9462L192.0241 293.7192L192.0241 293.7192L192.8196 292.9237L192.8196 292.9237L192.2893 292.3933C 191.5822 291.6862 192.1125 290.8907 193.35 290.0069L193.35 290.0069L203.9566 283.3777L203.9566 283.3777L204.2217 283.6429L204.2217 283.6429L198.2555 293.5866C 196.4878 295.0008 195.1177 295.2218 194.4106 294.5147L194.4106 294.5147L194.0129 294.1169L194.0129 294.1169L193.2174 294.9124L193.2174 294.9124L197.7252 299.4202L197.7252 299.4202L198.5207 298.6247L198.5207 298.6247L198.123 298.227C 197.4158 297.5199 197.9462 296.7244 199.1836 295.8405L199.1836 295.8405L209.7902 289.2114L209.7902 289.2114L209.9228 289.3439L209.9228 289.3439L202.8959 300.8786C 202.3656 301.7625 201.6143 301.7183 200.9072 301.0112L200.9072 301.0112L200.2443 300.3483z" stroke="none" fill="#4055FF" fill-rule="evenodd" fill-opacity="0.2980392" /><path transform="matrix(1 0 0 -1 0 843)" d="M216.4193 318.1144L220.9272 322.6222L220.9272 322.6222L221.7227 321.8267L221.7227 321.8267L221.1923 321.2964C 220.4852 320.5893 220.441 319.5728 221.3249 317.9818L221.3249 317.9818L230.6057 302.337L230.6057 302.337L229.8102 301.5416L229.8102 301.5416L217.3474 309.2314L217.3474 309.2314L224.9046 296.636L224.9046 296.636L224.1091 295.8405L224.1091 295.8405L208.8621 304.9887C 207.4479 306.0493 206.0779 306.1819 205.5476 305.6516L205.5476 305.6516L205.0172 305.1213L205.0172 305.1213L204.2217 305.9168L204.2217 305.9168L208.9947 310.6898L208.9947 310.6898L209.7902 309.8943L209.7902 309.8943L209.2599 309.3639C 208.5528 308.6568 209.0831 307.8613 210.3206 306.9774L210.3206 306.9774L220.9272 300.3483L220.9272 300.3483L221.1923 300.6135L221.1923 300.6135L215.2261 310.5572C 213.4583 311.9714 212.0883 312.1924 211.3812 311.4852L211.3812 311.4852L210.9835 311.0875L210.9835 311.0875L210.188 311.883L210.188 311.883L214.6958 316.3908L214.6958 316.3908L215.4913 315.5953L215.4913 315.5953L215.0935 315.1976C 214.3864 314.4904 214.9167 313.6949 216.1542 312.8111L216.1542 312.8111L226.7608 306.1819L226.7608 306.1819L226.8934 306.3145L226.8934 306.3145L219.8665 317.8492C 219.3362 318.7331 218.5849 318.6889 217.8778 317.9818L217.8778 317.9818L217.2148 317.3189z" stroke="none" fill="#4055FF" fill-rule="evenodd" fill-opacity="0.2980392" /><path transform="matrix(1 0 0 -1 0 843)" d="M233.3899 335.085L237.8977 339.5928L237.8977 339.5928L238.6932 338.7973L238.6932 338.7973L238.1629 338.2669C 237.4558 337.5598 237.4116 336.5434 238.2955 334.9524L238.2955 334.9524L247.5763 319.3076L247.5763 319.3076L246.7808 318.5121L246.7808 318.5121L234.318 326.2019L234.318 326.2019L241.8752 313.6066L241.8752 313.6066L241.0797 312.8111L241.0797 312.8111L225.8327 321.9593C 224.4185 323.0199 223.0485 323.1525 222.5182 322.6222L222.5182 322.6222L221.9878 322.0919L221.9878 322.0919L221.1923 322.8874L221.1923 322.8874L225.9653 327.6603L225.9653 327.6603L226.7608 326.8648L226.7608 326.8648L226.2305 326.3345C 225.5234 325.6274 226.0537 324.8319 227.2911 323.948L227.2911 323.948L237.8978 317.3189L237.8978 317.3189L238.1629 317.584L238.1629 317.584L232.1967 327.5277C 230.4289 328.942 229.0589 329.1629 228.3518 328.4558L228.3518 328.4558L227.954 328.0581L227.954 328.0581L227.1585 328.8536L227.1585 328.8536L231.6664 333.3614L231.6664 333.3614L232.4619 332.5659L232.4619 332.5659L232.0641 332.1682C 231.357 331.461 231.8873 330.6655 233.1248 329.7816L233.1248 329.7816L243.7314 323.1525L243.7314 323.1525L243.864 323.2851L243.864 323.2851L236.8371 334.8198C 236.3067 335.7037 235.5555 335.6595 234.8483 334.9524L234.8483 334.9524L234.1854 334.2895z" stroke="none" fill="#4055FF" fill-rule="evenodd" fill-opacity="0.2980392" /><path transform="matrix(1 0 0 -1 0 843)" d="M257.52 328.721C 256.4593 327.6603 254.7799 327.4836 253.5425 328.721C 252.3051 329.9584 252.4818 331.6378 253.5425 332.6985C 254.6032 333.7591 256.4593 333.7591 257.52 332.6985C 258.7574 331.461 258.5806 329.7816 257.52 328.721z" stroke="none" fill="#4055FF" fill-rule="evenodd" fill-opacity="0.2980392" /><path transform="matrix(1 0 0 -1 0 843)" d="M258.7132 364.916C 255.0009 368.6284 255.8848 373.2246 258.7132 376.053C 261.7184 379.0582 264.4585 379.3234 265.8727 377.9092C 266.5798 377.2021 266.9333 376.3182 265.8727 375.2575C 265.1656 374.5504 264.3701 374.3736 263.4862 375.2575C 263.3094 375.4343 263.0001 376.0088 262.8233 376.1856C 262.1161 376.8927 261.3207 377.0695 259.3761 375.1249C 257.2548 373.0036 256.9896 370.3519 260.1716 367.17L260.1716 367.17L262.8233 364.5183L262.8233 364.5183L268.3918 370.0868L268.3918 370.0868L269.1873 369.2913L269.1873 369.2913L263.6188 363.7228L263.6188 363.7228L275.8164 351.5252C 276.5235 350.8181 277.3632 350.9507 278.0703 351.6578L278.0703 351.6578L281.2523 354.8398L281.2523 354.8398L282.0478 354.0443L282.0478 354.0443L272.3692 344.3657L272.3692 344.3657L271.5737 345.1613L271.5737 345.1613L273.8276 347.4152C 274.7115 348.299 274.6673 348.9619 273.9602 349.6691L273.9602 349.6691L261.7626 361.8666L261.7626 361.8666L257.6526 357.7566L257.6526 357.7566L256.8571 358.5521L256.8571 358.5521L260.9671 362.6621z" stroke="none" fill="#4055FF" fill-rule="evenodd" fill-opacity="0.2980392" /><path transform="matrix(1 0 0 -1 0 843)" d="M279.131 373.1362C 276.4793 375.7878 277.3632 379.5885 280.1916 382.417C 281.7826 384.008 284.0365 384.936 284.5668 385.4664C 285.0972 385.9967 285.2297 386.3944 285.2297 387.4551L285.2297 387.4551L290.1353 383.6102L290.1353 383.6102L289.4724 382.6821C 286.4672 384.2731 283.241 383.8754 281.1197 381.7541C 278.8216 379.456 278.3354 377.1136 279.9265 375.5227C 281.3406 374.1085 282.6223 373.8875 284.5668 375.1249C 286.3346 375.832 289.0305 377.2904 291.3286 378.1743C 293.4499 378.8814 295.748 378.793 297.1622 377.3788C 299.8138 374.7272 299.5045 371.2358 295.9689 367.7003C 293.6708 365.4022 292.0356 365.0928 291.3286 364.3857C 290.7982 363.8554 290.4889 362.9273 290.1353 361.8667L290.1353 361.8667L284.832 366.3745L284.832 366.3745L285.4949 367.3026C 288.8537 365.0045 291.9915 365.3138 295.1735 368.4958C 297.6483 370.9707 298.1345 373.2245 296.3667 374.9923C 295.1293 376.2298 293.4499 376.1414 292.3892 375.7878C 289.9143 374.7272 286.7324 373.2246 284.4343 372.3407C 282.1362 371.4568 280.3684 371.8987 279.131 373.1362z" stroke="none" fill="#4055FF" fill-rule="evenodd" fill-opacity="0.2980392" /><path transform="matrix(1 0 0 -1 0 843)" d="M299.8138 393.2888C 298.7532 397.8849 299.2835 401.5089 301.4048 403.6302C 303.1726 405.3979 305.1171 405.4864 306.1778 404.4257C 307.0617 403.5418 307.1943 402.5253 306.3104 401.6414C 305.4265 400.7576 304.3658 400.8459 303.6588 401.9066C 303.1284 402.437 302.6865 402.7905 301.8026 401.9066C 300.3884 400.4924 299.9464 396.3381 301.5374 391.5652L301.5374 391.5652L308.6969 384.4057C 309.404 383.6986 310.2437 383.8312 310.9508 384.5383L310.9508 384.5383L313.8676 387.4551L313.8676 387.4551L314.6631 386.6596L314.6631 386.6596L304.852 376.8485L304.852 376.8485L304.0565 377.644L304.0565 377.644L306.7081 380.2957C 307.592 381.1795 307.5479 381.8424 306.8407 382.5496L306.8407 382.5496L295.8364 393.5539C 295.1293 394.261 294.3337 394.4378 293.4499 393.5539L293.4499 393.5539L290.9308 391.0349L290.9308 391.0349L290.1353 391.8303L290.1353 391.8303L291.196 392.891C 292.4334 394.1284 294.1128 396.4265 294.6431 397.664L294.6431 397.664L295.0409 398.0617z" stroke="none" fill="#4055FF" fill-rule="evenodd" fill-opacity="0.2980392" /><path transform="matrix(1 0 0 -1 0 843)" d="M325.4023 396.6033C 324.3416 395.5427 322.6622 395.3659 321.4248 396.6033C 320.1874 397.8408 320.3641 399.5201 321.4248 400.5808C 322.4855 401.6414 324.3416 401.6414 325.4023 400.5808C 326.6397 399.3434 326.463 397.664 325.4023 396.6033z" stroke="none" fill="#4055FF" fill-rule="evenodd" fill-opacity="0.2980392" /><path transform="matrix(1 0 0 -1 0 843)" d="M345.6874 432.5332C 350.1069 428.1138 350.372 421.8382 346.4829 417.9491C 342.4171 413.8832 336.1415 414.502 331.8988 418.7446C 328.0098 422.6337 327.0375 429.2628 331.1033 433.3287C 335.346 437.5714 341.7983 436.4223 345.6874 432.5332zM334.1527 420.7333C 338.749 416.1371 343.0358 416.093 345.6874 418.7446C 348.6926 421.7498 347.9413 426.0367 343.6987 430.2793C 339.1025 434.8755 334.5505 435.1849 331.8989 432.5332C 329.424 430.0583 329.5565 425.3295 334.1527 420.7333z" stroke="none" fill="#4055FF" fill-rule="evenodd" fill-opacity="0.2980392" /><path transform="matrix(1 0 0 -1 0 843)" d="M350.7256 444.2005C 349.6649 448.7967 350.1953 452.4206 352.3166 454.5419C 354.0844 456.3097 356.0289 456.3981 357.0895 455.3374C 357.9734 454.4536 358.106 453.4371 357.2221 452.5532C 356.3383 451.6693 355.2776 451.7577 354.5705 452.8184C 354.0402 453.3487 353.5982 453.7022 352.7143 452.8184C 351.3001 451.4041 350.8582 447.2499 352.4492 442.4769L352.4492 442.4769L359.6086 435.3174C 360.3157 434.6104 361.1554 434.7429 361.8625 435.45L361.8625 435.45L364.7794 438.3669L364.7794 438.3669L365.5748 437.5714L365.5748 437.5714L355.7637 427.7602L355.7637 427.7602L354.9682 428.5557L354.9682 428.5557L357.6199 431.2074C 358.5037 432.0912 358.4596 432.7542 357.7524 433.4613L357.7524 433.4613L346.7481 444.4656C 346.041 445.1728 345.2455 445.3495 344.3616 444.4656L344.3616 444.4656L341.8425 441.9466L341.8425 441.9466L341.0471 442.7421L341.0471 442.7421L342.1077 443.8027C 343.3452 445.0402 345.0245 447.3383 345.5549 448.5757L345.5549 448.5757L345.9526 448.9734z" stroke="none" fill="#4055FF" fill-rule="evenodd" fill-opacity="0.2980392" /><path transform="matrix(1 0 0 -1 0 843)" d="M366.3704 458.2542C 368.4916 456.1329 371.5411 455.7352 373.6624 457.8565C 375.9604 460.1546 375.7395 462.6736 373.2646 465.1485C 370.2594 468.1537 367.5194 467.8886 365.5748 465.944C 363.6303 463.9995 363.3651 461.2595 366.3704 458.2542zM380.0264 457.5913C 383.0316 459.8894 385.3738 459.9336 387.3184 457.9891C 389.97 455.3374 389.5723 451.4925 384.7993 446.7195C 381.087 443.0072 376.8002 442.2559 374.8556 444.2005C 373.6182 445.4379 373.0878 447.6476 374.3253 450.2993C 372.7343 449.769 371.4968 449.6805 370.613 450.5645C 369.5523 451.6251 369.5523 453.2161 370.0826 454.8071C 368.1381 454.6303 365.9284 454.9839 364.5142 456.3981C 361.8625 459.0497 361.4206 463.3808 364.7794 466.7395C 366.1935 468.1537 367.9171 469.2586 369.6849 469.2586C 370.0385 471.3799 370.5688 472.7941 371.2759 473.5013C 372.1598 474.3851 373.2646 473.899 373.795 473.3687C 374.5021 472.6616 374.7672 471.9545 374.0601 471.2473C 373.5298 470.717 372.9111 470.6286 372.204 470.9822C 371.4969 471.3357 370.9224 470.496 370.7455 469.2586C 372.1598 469.2586 373.8834 468.2421 375.1208 467.0047C 377.2421 464.8834 378.1702 460.7733 374.4579 457.061C 373.3972 456.0004 372.1598 455.3816 371.2759 455.2048C 370.9223 454.1442 371.1875 453.1719 371.5411 452.8184C 372.2482 452.1113 372.9553 452.1112 373.6624 452.8184C 376.314 454.7629 378.4354 456.3539 380.0264 457.5913zM375.6511 451.0948C 374.7672 448.7967 375.165 447.3383 376.5792 445.9241C 377.9934 444.5098 381.087 444.5982 384.269 447.7802C 387.2742 450.7854 388.2023 453.6581 386.2578 455.6026C 385.0203 456.84 383.8712 457.1052 382.8105 456.3981C 380.6893 454.9839 378.3027 453.0393 375.6511 451.0948z" stroke="none" fill="#4055FF" fill-rule="evenodd" fill-opacity="0.2980392" /><path transform="matrix(1 0 0 -1 0 843)" d="M393.2846 464.4856C 392.2239 463.425 390.5446 463.2482 389.3071 464.4856C 388.0697 465.7231 388.2465 467.4024 389.3071 468.4631C 390.3678 469.5238 392.2239 469.5238 393.2846 468.4631C 394.522 467.2257 394.3453 465.5463 393.2846 464.4856z" stroke="none" fill="#4055FF" fill-rule="evenodd" fill-opacity="0.2980392" /><path transform="matrix(1 0 0 -1 0 843)" d="M405.7474 500.283C 405.217 500.8133 405.3054 500.9017 404.9519 501.6088C 404.4216 502.4926 402.3002 502.9346 400.1789 500.8133C 397.5273 498.1616 398.1902 493.2561 402.4328 489.0134C 406.3219 485.1243 410.3878 483.9753 414.1001 487.6876C 416.575 490.1625 416.4424 493.7422 415.0281 496.5706L415.0281 496.5706L415.9562 496.9684C 417.9008 493.6096 418.1218 489.588 414.763 486.2292C 410.5203 481.9865 405.1287 482.0749 400.1789 487.0247C 395.7595 491.4441 395.4059 497.6313 399.6486 501.8739C 402.6538 504.8792 406.4103 504.6582 408.0013 503.0672C 409.062 502.0065 409.0178 501.1668 408.1339 500.283C 407.4268 499.5758 406.4545 499.5758 405.7474 500.283z" stroke="none" fill="#4055FF" fill-rule="evenodd" fill-opacity="0.2980392" /><path transform="matrix(1 0 0 -1 0 843)" d="M423.6461 495.6425L422.8505 496.438L422.8505 496.438L423.5134 497.101C 424.3973 497.9849 424.3531 498.6478 423.6461 499.3549L423.6461 499.3549L412.244 510.757C 411.7136 511.2873 411.3159 511.4199 410.7855 510.8896L410.7855 510.8896L409.7249 509.8289L409.7249 509.8289L408.9294 510.6244L408.9294 510.6244L409.8574 511.5525C 410.7413 512.4363 411.4042 513.3644 411.581 514.6019L411.581 514.6019L411.8462 514.8671L411.8462 514.8671L414.8956 511.8176C 414.7188 515.1764 415.3817 517.6071 417.1495 519.3748C 420.1547 522.3801 423.1157 522.1591 426.2977 518.9771L426.2977 518.9771L434.783 510.4918C 435.4901 509.7847 436.3298 509.9173 437.0369 510.6244L437.0369 510.6244L437.6998 511.2873L437.6998 511.2873L438.4953 510.4918L438.4953 510.4918L432.9268 504.9233L432.9268 504.9233L432.1313 505.7188L432.1313 505.7188L432.7943 506.3817C 433.6781 507.2656 433.6339 507.9285 432.9268 508.6357L432.9268 508.6357L424.0438 517.5187C 421.9224 519.64 419.8453 519.9493 418.0776 518.1816C 416.4866 516.5906 415.8237 513.718 416.354 510.3592L416.354 510.3592L425.5022 501.211C 426.2093 500.5039 427.049 500.6365 427.7561 501.3436L427.7561 501.3436L428.419 502.0065L428.419 502.0065L429.2145 501.211z" stroke="none" fill="#4055FF" fill-rule="evenodd" fill-opacity="0.2980392" /></g><g clip-path="url(#3)"></g><g clip-path="url(#4)"></g></g></g></g></svg>