<svg xmlns="http://www.w3.org/2000/svg" xmlns:xlink="http://www.w3.org/1999/xlink" id="body_1" preserveAspectRatio="xMinYMin meet" viewBox="0 0 793 1124"><defs><clipPath id="1"><path d="M0 843L0 -0.3599854L0 -0.3599854L595.2 -0.3599854L595.2 -0.3599854L595.2 843L595.2 843L0 843z" /></clipPath><clipPath id="2"><path d="M179.0865 608.2766L484.5569 302.8062L484.5569 302.8062L416.114 234.3633L416.114 234.3633L110.6436 539.8337z" /></clipPath><clipPath id="3"><path d="M72 807L144 807L144 807L144 799.032L144 799.032L72 799.032z" /></clipPath><clipPath id="4"><path d="M467.2 807L523.2 807L523.2 807L523.2 799.032L523.2 799.032L467.2 799.032z" /></clipPath></defs><g transform="matrix(1.333333 0 0 1.333333 0 0)"><g><g clip-path="url(#1)"><g transform="matrix(0.24 0 0 0.24 0 -0.3599854)"><g transform="matrix(1 0 0 1 0 0)"><image x="0" y="0" xlink:href="img_01.png" width="2480" height="3514" /></g></g><g clip-path="url(#2)"><path transform="matrix(1 0 0 -1 0 843)" d="M137.5418 311.2699L147.0877 320.8159L147.0877 320.8159L155.9708 311.9329L155.9708 311.9329L146.4248 302.3869zM135.0227 310.0767L125.8745 300.9285L125.8745 300.9285L122.6925 299.8678C 124.5487 298.1884 126.891 295.9345 129.7194 293.1061C 132.5478 290.2777 134.3598 288.4215 135.1553 287.5376C 135.9508 286.6537 136.3485 286.1234 136.3485 285.9467L136.3485 285.9467L137.6744 288.8635L137.6744 288.8635L135.9508 290.587L135.9508 290.587L145.2316 299.8678C 151.9491 293.1503 156.4127 288.5983 158.6224 286.2118L158.6224 286.2118L159.9482 289.1286C 158.1805 290.7196 153.8936 294.9181 147.0877 301.724L147.0877 301.724L156.6337 311.2699L156.6337 311.2699L159.1527 308.7509L159.1527 308.7509L160.346 311.5351C 159.1969 312.5074 158.1363 313.4796 157.164 314.4519L157.164 314.4519L149.6068 322.0091L149.6068 322.0091L149.7394 323.9979L149.7394 323.9979L145.8945 323.6001L145.8945 323.6001L146.1597 321.2136L146.1597 321.2136L136.8789 311.9329L136.8789 311.9329L131.5756 317.2361L131.5756 317.2361L131.5756 319.0923L131.5756 319.0923L127.3329 317.5013C 129.1891 315.8219 131.7523 313.3471 135.0227 310.0767zM126.4048 300.133L135.6856 309.4138L135.6856 309.4138L144.5687 300.5307L144.5687 300.5307L135.2879 291.25z" stroke="none" fill="#4055FF" fill-rule="evenodd" fill-opacity="0.2980392" /><path transform="matrix(1 0 0 -1 0 843)" d="M159.9482 338.1842L162.2021 338.3168L162.2021 338.3168L162.9977 339.9078L162.9977 339.9078L168.3009 345.2111L168.3009 345.2111L174.6649 338.8471L174.6649 338.8471L168.0358 332.218L168.0358 332.218L170.2897 332.3506L170.2897 332.3506L171.2178 334.0742L171.2178 334.0742L175.3278 338.1842L175.3278 338.1842L184.2109 329.3012L184.2109 329.3012L175.7256 320.8159L175.7256 320.8159L177.8469 320.8159C 178.3772 321.8766 179.1285 322.893 180.1008 323.8653L180.1008 323.8653L195.7456 339.51L195.7456 339.51L190.9726 339.51L190.9726 339.51L191.1052 336.1955L191.1052 336.1955L186.067 331.1573L186.067 331.1573L177.184 340.0404L177.184 340.0404L184.7412 347.5976L184.7412 347.5976L180.2334 347.5976L180.2334 347.5976L180.366 344.5482L180.366 344.5482L176.5211 340.7033L176.5211 340.7033L170.1571 347.0673L170.1571 347.0673L178.9076 355.8177L178.9076 355.8177L174.3997 355.8177L174.3997 355.8177L174.5323 352.7683zM179.8356 340.3055L179.8356 339.51C 183.1944 339.51 185.6914 339.1344 187.3266 338.3831C 188.9617 337.6318 189.5584 338.0516 189.1164 339.6426C 188.6745 341.2336 187.7243 342.007 186.2659 341.9628C 184.8075 341.9186 182.6641 341.3662 179.8356 340.3055zM181.2941 309.679L182.3547 312.5958L182.3547 312.5958L179.8356 315.1148L179.8356 315.1148L200.6511 335.9303L200.6511 335.9303L203.3028 333.2787L203.3028 333.2787L204.6286 335.9303C 202.6841 337.6981 200.8279 339.4659 199.0601 341.2336L199.0601 341.2336L178.1121 362.1817L178.1121 362.1817L178.2447 363.9052L178.2447 363.9052L174.7975 363.9052L174.7975 363.9052L174.7975 361.5188L174.7975 361.5188L154.1146 340.8359L154.1146 340.8359L150.9326 340.0404C 153.2307 337.919 155.2195 336.0187 156.8988 334.3393L156.8988 334.3393L175.7256 315.5126C 177.5817 313.6564 179.4379 311.7119 181.2941 309.679zM154.7775 340.1729L175.593 360.9884L175.593 360.9884L199.9882 336.5932L199.9882 336.5932L179.1727 315.7777z" stroke="none" fill="#4055FF" fill-rule="evenodd" fill-opacity="0.2980392" /><path transform="matrix(1 0 0 -1 0 843)" d="M206.6173 364.1704L218.4172 375.9703L218.4172 375.9703L221.8643 372.5231L221.8643 372.5231L210.0645 360.7233zM194.8175 357.939C 199.5905 370.1366 199.8998 376.5448 199.1927 383.2623C 211.7439 382.0249 217.4449 384.2788 222.3947 387.1072C 221.5992 387.9027 221.8643 389.4053 223.1902 391.615L223.1902 391.615L222.6598 392.1454C 216.6494 386.4885 209.3132 383.4833 199.0601 384.1904L199.0601 384.1904L199.9882 386.4443L199.9882 386.4443L195.0826 385.2511C 197.0272 381.1852 197.6901 369.3853 194.1546 358.0716zM200.2534 378.2242L200.1208 377.5613C 202.9492 377.2077 205.1368 376.6995 206.6836 376.0366C 208.2304 375.3737 208.8271 375.7493 208.4735 377.1635C 208.1199 378.5777 207.4128 379.329 206.3522 379.4174C 205.2915 379.5058 203.2586 379.1081 200.2534 378.2242zM223.5879 362.0491L218.4172 352.3705L218.4172 352.3705L210.7274 360.0604L210.7274 360.0604L222.5273 371.8602L222.5273 371.8602L223.7205 370.667L223.7205 370.667L224.516 373.8489C 224.1624 374.0257 221.555 376.5448 216.6936 381.4062L216.6936 381.4062L217.224 383.2623L217.224 383.2623L213.1139 383.1297L213.1139 383.1297L213.3791 380.4781L213.3791 380.4781L201.9769 369.076L201.9769 369.076L198.6624 368.1479C 199.9882 366.9988 201.4466 365.6288 203.0376 364.0378L203.0376 364.0378L214.97 352.1054C 216.2075 350.868 216.782 349.9399 216.6936 349.3212L216.6936 349.3212L220.5385 348.3931C 220.0966 349.5421 221.3782 354.0057 224.3834 361.7839zM214.97 361.3862L215.1026 360.7233C 219.1685 362.1375 223.0576 363.3307 226.7699 364.303C 230.4822 365.2753 233.399 365.7614 235.5204 365.7614C 237.6417 365.7614 238.2383 366.358 237.3102 367.5513C 236.3821 368.7445 235.211 369.2086 233.7968 368.9434C 232.3826 368.6782 229.8635 367.7943 226.2396 366.2917C 227.477 370.0041 228.2283 373.3186 229.8193 374.9096L229.8193 374.9096L225.4441 374.777C 225.886 373.0977 225.8418 370.1366 225.3115 365.894C 221.6876 364.3914 218.2404 362.8888 214.97 361.3862zM202.5073 368.2805L214.3071 380.0803L214.3071 380.0803L217.7543 376.6332L217.7543 376.6332L205.9544 364.8333z" stroke="none" fill="#4055FF" fill-rule="evenodd" fill-opacity="0.2980392" /><path transform="matrix(1 0 0 -1 0 843)" d="M261.2414 415.0822L261.374 416.8057L261.374 416.8057L257.6617 416.5406L257.6617 416.5406L257.9268 414.1541L257.9268 414.1541L251.2977 407.5249L251.2977 407.5249L247.9831 406.862C 252.2258 402.9729 258.6781 396.5206 262.5672 392.278L262.5672 392.278L263.7604 395.0622L263.7604 395.0622L261.1088 397.7138L261.1088 397.7138L268.0031 404.6081L268.0031 404.6081L271.0525 401.5587L271.0525 401.5587L272.2457 404.343C 271.2735 405.1385 267.6053 408.7182 261.2414 415.0822zM251.9606 406.862L258.8549 413.7563L258.8549 413.7563L267.3402 405.271L267.3402 405.271L260.4459 398.3767zM241.354 424.6281L241.6192 426.4843L241.6192 426.4843L237.7743 426.0865L237.7743 426.0865L238.0394 423.7L238.0394 423.7L227.4328 413.0934L227.4328 413.0934L224.1183 412.1653C 228.0073 408.6298 232.1616 404.4755 237.6417 398.6419L237.6417 398.6419L238.9675 401.2935L238.9675 401.2935L237.1113 403.1497L237.1113 403.1497L248.1157 414.1541L248.1157 414.1541L250.237 412.0327L250.237 412.0327L251.4303 414.817C 249.0438 417.0267 245.685 420.2971 241.354 424.6281zM227.9631 412.2979L238.9675 423.3023L238.9675 423.3023L247.4528 414.817L247.4528 414.817L236.4484 403.8126zM246.3921 399.9677L246.6573 401.8239L246.6573 401.8239L242.8124 401.4261L242.8124 401.4261L242.945 399.1722L242.945 399.1722L236.7136 392.9409L236.7136 392.9409L233.5316 392.1454C 237.5975 388.433 244.1382 381.8923 248.3809 377.2961L248.3809 377.2961L249.5741 380.0803L249.5741 380.0803L246.5247 383.1297L246.5247 383.1297L253.0213 389.6263L253.0213 389.6263L255.9381 386.7095L255.9381 386.7095L256.9987 389.6263C 254.789 391.6592 251.2535 395.1064 246.3921 399.9677zM237.3765 392.278L243.8731 398.7745L243.8731 398.7745L252.3584 390.2892L252.3584 390.2892L245.8618 383.7927z" stroke="none" fill="#4055FF" fill-rule="evenodd" fill-opacity="0.2980392" /><path transform="matrix(1 0 0 -1 0 843)" d="M270.6548 442.7919C 271.9806 440.9358 273.2622 438.5051 274.4996 435.4999L274.4996 435.4999L264.1582 425.1584L264.1582 425.1584L266.2795 425.1584L266.2795 425.1584L267.2076 426.882L267.2076 426.882L274.8974 434.5718C 276.5768 430.7711 277.7258 427.5007 278.3445 424.7607C 281.4381 426.7936 285.0621 428.8265 289.2163 430.8595C 289.3047 424.7607 286.5647 417.778 280.9962 409.9114L280.9962 409.9114L281.6591 409.5137C 287.8463 416.7615 291.5587 424.4513 291.7354 432.0527C 296.8619 434.3508 300.9941 435.6104 304.1319 435.8313C 307.2697 436.0523 308.3303 436.8036 307.3138 438.0852C 306.2974 439.3669 304.5959 439.6541 302.2094 438.947C 299.8229 438.2399 296.2432 436.6489 291.4702 434.1741C 290.8515 437.9748 289.5699 442.35 287.6253 447.2997L287.6253 447.2997L294.7848 454.4592L294.7848 454.4592L290.277 454.4592L290.277 454.4592L290.277 451.2772L290.277 451.2772L276.4884 437.4886L276.4884 437.4886L274.7648 441.8638L274.7648 441.8638L275.03 443.9852zM276.8862 436.5605L285.3715 445.0458C 287.2276 440.538 288.4208 436.428 288.9512 432.7156C 287.0066 431.655 284.0456 429.843 280.0681 427.2798C 279.1842 430.285 278.1236 433.3786 276.8862 436.5605zM262.965 452.0727C 265.5282 451.8076 267.6274 451.1667 269.2626 450.1503C 270.8978 449.1338 271.627 449.4211 271.4503 451.012C 271.2735 452.603 270.4559 453.4648 268.9975 453.5974C 267.5391 453.73 265.484 453.4427 262.8324 452.7356zM284.3108 453.266L284.9737 453.6637C 284.355 457.6412 284.6643 460.337 285.9018 461.7512L285.9018 461.7512L281.1288 461.7513L281.1288 461.7513L281.2614 458.7018L281.2614 458.7018L261.374 438.8145L261.374 438.8145L259.783 440.4055L259.783 440.4055L259.1201 439.7425C 260.7994 437.5328 261.5508 435.5441 261.374 433.7763C 261.1972 432.0085 261.6613 431.3235 262.7661 431.7213C 263.871 432.119 264.4676 432.8924 264.556 434.0415C 264.6443 435.1905 263.8047 436.5605 262.0369 438.1516L262.0369 438.1516L282.1895 458.3041z" stroke="none" fill="#4055FF" fill-rule="evenodd" fill-opacity="0.2980392" /><path transform="matrix(1 0 0 -1 0 843)" d="M301.0162 485.351C 306.7614 483.8484 312.1089 483.3622 317.0587 483.8925L317.0587 483.8925L316.9261 481.1083L316.9261 481.1083L302.4746 466.6568C 302.9165 473.2859 302.4304 479.5173 301.0162 485.351zM296.7736 486.942C 299.4252 481.8154 302.0327 471.1646 299.0274 456.8457L299.0274 456.8457L299.6904 456.7131C 301.193 460.5138 302.121 463.74 302.4746 466.3916L302.4746 466.3916L304.8611 466.3917L304.8611 466.3917L305.3914 468.2478L305.3914 468.2478L311.0925 473.9489L311.0925 473.9489L317.7216 467.3197L317.7216 467.3197L308.5734 458.1715L308.5734 458.1715L310.6947 458.1715C 311.225 459.2322 311.9763 460.2487 312.9486 461.2209L312.9486 461.2209L318.3845 466.6568L318.3845 466.6568L326.0743 458.967L326.0743 458.967L313.4789 446.3716L313.4789 446.3716L315.6003 446.3716C 316.1306 447.4323 316.8819 448.4488 317.8542 449.4211L317.8542 449.4211L342.382 473.9489L342.382 473.9489L337.0787 473.9489L337.0787 473.9489L337.3438 470.2365L337.3438 470.2365L327.9305 460.8232L327.9305 460.8232L320.2407 468.513L320.2407 468.513L330.1844 478.4567L330.1844 478.4567L325.544 478.3241L325.544 478.3241L325.544 475.1421L325.544 475.1421L319.5778 469.1759L319.5778 469.1759L312.9486 475.805L312.9486 475.805L321.0362 483.8925L321.0362 483.8925L318.3845 484.1577C 321.7433 484.688 324.6159 485.351 327.0024 486.1465C 326.5605 487.1187 326.8698 488.5771 327.9305 490.5217L327.9305 490.5217L327.5327 490.9194C 317.1029 485.0858 306.5405 485.13 300.8836 486.5442L300.8836 486.5442L301.4139 488.4004z" stroke="none" fill="#4055FF" fill-rule="evenodd" fill-opacity="0.2980392" /><path transform="matrix(1 0 0 -1 0 843)" d="M348.7459 521.1483L349.5414 521.4135C 349.1879 526.0096 349.2763 528.4845 350.8673 530.4291L350.8673 530.4291L345.6965 530.2965L345.6965 530.2965L346.0943 527.5122L346.0943 527.5122L336.6809 518.0989C 335.797 521.1041 335.6645 522.8276 336.2832 523.2696L336.2832 523.2696L332.3057 521.9438C 334.427 518.4082 336.4158 512.7955 335.8854 505.9013L335.8854 505.9013L336.6809 505.9013C 337.83 509.1716 337.9626 512.9282 337.0787 517.1708L337.0787 517.1708L347.0224 527.1145zM340.2607 519.027C 344.5033 514.7843 345.2988 508.7739 338.4045 498.3441L338.4045 498.3441L339.0674 497.9463C 345.343 505.2825 347.1992 511.8233 344.6359 517.5685C 349.1437 515.1821 354.4028 515.0495 360.4132 517.1708C 359.7061 518.4082 360.2365 519.8224 362.0042 521.4135L362.0042 521.4135L361.6064 521.8112C 355.8612 517.6569 350.116 516.5079 344.3707 518.364C 343.8404 519.2479 343.752 520.0435 344.1055 520.7505zM321.3013 508.8181L321.5665 508.0226C 323.8646 508.5529 325.8312 508.6192 327.4664 508.2215C 329.1016 507.8237 329.7645 508.2215 329.4552 509.4147C 329.1458 510.608 328.3724 511.293 327.135 511.4697C 325.8975 511.6465 323.953 510.7626 321.3013 508.8181zM331.5102 515.5798C 331.5102 508.5087 331.3555 504.5533 331.0461 503.7137C 330.7368 502.874 330.4053 502.2773 330.0518 501.9238C 329.6982 501.5703 328.5934 500.9073 326.7372 499.9351L326.7372 499.9351L327.135 499.2722C 329.0795 500.156 330.5379 500.3328 331.5102 499.8025C 332.4825 499.2722 333.2559 498.2778 333.8304 496.8194C 334.4049 495.361 335.4435 494.8085 336.9461 495.1621C 338.4487 495.5156 338.5592 496.289 337.2775 497.4823C 335.9959 498.6755 335.0015 499.8025 334.2944 500.8631C 333.5873 501.9238 333.1454 503.5148 332.9686 505.6361C 332.7918 507.7574 332.5267 511.1162 332.1731 515.7124zM350.7347 487.87L351.6628 490.6543L351.6628 490.6543L343.1775 499.1396L343.1775 499.1396L356.1706 512.1327L356.1706 512.1327L364.6559 503.6474L364.6559 503.6474L365.4514 506.5642C 363.9487 507.89 361.6506 510.0997 358.5571 513.1933L358.5571 513.1933L359.0874 515.0494L359.0874 515.0494L354.9773 514.6517L354.9773 514.6517L355.2425 512.2653L355.2425 512.2653L342.9123 499.9351L342.9123 499.9351L339.8629 498.7418C 343.752 495.2063 346.6688 492.2895 350.7347 487.87zM349.9392 502.9844L351.9279 500.9957C 353.6957 498.8744 354.7563 496.6205 355.1099 494.234C 355.4634 491.8475 355.0436 489.1296 353.8504 486.0801C 352.6571 483.0308 351.265 480.2686 349.674 477.7938L349.674 477.7938L350.2043 477.5286C 353.0328 481.0641 355.0657 484.4229 356.3032 487.6049C 357.5406 490.7869 357.9163 493.549 357.4301 495.8913C 356.944 498.2336 355.9938 500.377 354.5796 502.3215L354.5796 502.3215L354.7122 504.3103zM359.0874 497.0182C 362.0926 498.786 364.7443 500.1118 367.0424 500.9957C 369.3405 501.8796 371.285 502.3215 372.876 502.3215C 374.467 502.3215 375.1741 502.8077 374.9973 503.78C 374.8205 504.7522 374.0913 505.2605 372.8097 505.3046C 371.5281 505.3488 369.7824 504.7964 367.5727 503.6474C 365.363 502.4983 362.3577 500.4654 358.5571 497.5486z" stroke="none" fill="#4055FF" fill-rule="evenodd" fill-opacity="0.2980392" /><path transform="matrix(1 0 0 -1 0 843)" d="M377.5164 549.3884L386.2668 558.1388L386.2668 558.1388L390.2443 554.1614L390.2443 554.1614L381.4938 545.4109zM382.1567 544.748L390.9072 553.4984L390.9072 553.4984L395.0173 549.3884L395.0173 549.3884L386.2668 540.6379zM388.3882 537.1908C 389.3604 535.3346 389.8466 530.3407 389.8466 522.2089L389.8466 522.2089L390.5095 522.0764C 391.9237 530.5616 391.4376 533.9646 392.4982 537.8537zM395.9454 543.4221C 400.188 543.2454 403.3258 542.6266 405.3588 541.566C 407.3917 540.5053 408.2534 540.7484 407.9441 542.2952C 407.6348 543.842 406.7288 544.7922 405.2261 545.1458C 403.7236 545.4993 400.5858 545.1458 395.8128 544.0851zM386.3994 536.793L387.7252 539.1795L387.7252 539.1795L386.9297 539.975L386.9297 539.975L390.3769 543.4222L390.3769 543.4222L398.8622 534.9369C 400.2764 533.5227 398.0667 532.1085 395.415 530.1639L395.415 530.1639L395.9454 529.6335C 398.5086 530.9594 400.4974 531.092 401.9116 530.0313C 403.3258 532.3294 403.1048 534.4066 401.2487 536.2627L401.2487 536.2627L392.233 545.2783L392.233 545.2783L395.6802 548.7255L395.6802 548.7255L396.8734 547.5322L396.8734 547.5322L398.0667 550.0513C 397.2712 550.67 394.1334 553.7194 388.6533 559.1995L388.6533 559.1995L389.1837 561.0557L389.1837 561.0557L385.4713 561.3208L385.4713 561.3208L385.4714 558.6692L385.4714 558.6692L379.5051 552.7029C 378.798 556.9456 378.7538 557.7853 379.6377 559.7298L379.6377 559.7298L376.1906 558.9343L376.1906 558.9343L385.6039 568.3477L385.6039 568.3477L380.5658 568.3477L380.5658 568.3477L380.5658 564.6354L380.5658 564.6354L367.0424 551.1119L367.0424 551.1119L363.33 550.0513C 365.8049 547.9299 369.1416 544.7701 373.34 540.5717C 377.5385 536.3732 380.61 532.4178 382.5545 528.7054C 384.4991 524.9932 385.5598 520.397 385.7365 514.9169L385.7365 514.9169L386.532 514.9169C 387.1507 520.4854 386.6204 525.2141 384.941 529.1032C 383.2616 532.9923 380.853 536.5499 377.7153 539.7761C 374.5775 543.0023 371.1524 546.4716 367.4401 550.1839L367.4401 550.1839L375.5276 558.2714C 376.4999 556.9456 377.5605 554.8243 378.7097 551.9075L378.7097 551.9075L376.8535 550.0513L376.8535 550.0513L373.9366 549.2558C 378.3561 545.1899 382.3336 541.2125 386.3994 536.793zM367.8378 544.4828L367.1749 544.0851C 372.1247 532.5946 374.7321 526.2306 374.9973 524.9932C 375.2625 523.7557 375.2183 522.916 374.8647 522.4741C 374.5112 522.0322 373.4505 521.1041 371.6827 519.6899L371.6827 519.6899L372.2131 519.1595C 373.8925 520.1318 375.2404 520.64 376.2568 520.6842C 377.2733 520.7285 378.4224 519.5794 379.704 517.2371C 380.9856 514.8948 382.3336 514.0772 383.7477 514.7843C 385.162 515.4915 385.5376 516.1322 384.8747 516.7068C 384.2118 517.2813 383.0627 518.3419 381.4276 519.8887C 379.7924 521.4355 378.5549 522.9381 377.7153 524.3965C 376.8755 525.855 373.5831 532.5504 367.8378 544.4828zM359.7503 531.8875L359.8829 531.2245C 363.0649 531.0478 365.4514 530.5616 367.0424 529.7661C 368.6334 528.9706 369.4951 528.9927 369.6277 529.8325C 369.7603 530.6721 369.3184 531.6002 368.3019 532.6167C 367.2854 533.6332 364.4349 533.3901 359.7503 531.8875zM355.1099 542.6267L355.2425 541.9637C 358.1593 541.6986 360.4132 541.1683 362.0042 540.3727C 363.5952 539.5773 364.3686 539.7761 364.3244 540.9694C 364.2802 542.1626 363.6615 543.0465 362.4683 543.621C 361.275 544.1956 358.8222 543.8641 355.1099 542.6267z" stroke="none" fill="#4055FF" fill-rule="evenodd" fill-opacity="0.2980392" /><path transform="matrix(1 0 0 -1 0 843)" d="M409.6014 573.5184C 408.5407 576.7004 407.2591 579.1311 407.0823 582.1363L407.0823 582.1363L402.9722 581.4734C 404.9168 578.6449 406.3752 576.1259 407.3475 573.9161C 404.7842 574.1813 402.1768 574.314 399.5251 574.3139L399.5251 574.3139L399.3925 573.651C 402.6629 573.2091 405.6239 572.5461 408.2756 571.6622C 410.5737 566.8893 412.1204 562.4257 412.916 558.2714L412.916 558.2714L413.7114 558.5366C 413.1811 562.6025 412.2088 566.7567 410.7946 570.9993C 412.7391 570.2922 414.5291 569.4304 416.1642 568.414C 417.7994 567.3975 418.6833 567.3091 418.8159 568.1488C 418.9484 568.9885 418.7717 569.7398 418.2855 570.4027C 417.7994 571.0657 416.9818 571.618 415.8328 572.06C 414.6837 572.502 412.6066 572.9881 409.6014 573.5184zM419.9428 581.4734C 418.175 585.716 416.6282 589.3842 416.6282 591.1519L416.6282 591.1519L412.5182 590.2238C 414.4628 587.5721 416.1422 584.6554 417.5563 581.4734C 414.8163 581.7385 411.9437 581.7827 408.9385 581.606L408.9385 581.606L408.8058 580.9431C 411.9879 580.5895 415.1699 580.0592 418.3518 579.3521C 420.2964 574.7559 421.5338 570.0713 422.0641 565.2983L422.0641 565.2983L422.8597 565.2983C 422.9481 569.2758 422.2852 573.8278 420.8709 578.9543C 423.611 578.1588 425.7986 577.297 427.4337 576.369C 429.0689 575.4409 429.9086 575.3967 429.9528 576.2363C 429.997 577.076 429.7982 577.8937 429.3562 578.6891C 428.9142 579.4846 428.1188 580.0592 426.9697 580.4127C 425.8207 580.7662 423.4784 581.1199 419.9428 581.4734zM432.0079 567.5522C 435.455 569.762 437.7973 570.248 439.0347 569.0106C 440.2722 572.3694 440.9351 574.0046 438.637 576.3027L438.637 576.3027L416.2305 598.7091L416.2305 598.7091L416.4957 600.8304L416.4957 600.8304L412.3856 600.4327L412.3856 600.4327L412.7833 597.3833L412.7833 597.3833L392.7634 577.3633L392.7634 577.3633L389.3162 576.5678C 392.675 573.5626 411.7669 554.4707 417.9541 547.9299L417.9541 547.9299L418.7496 551.1119L418.7496 551.1119L393.2937 576.5678L393.2937 576.5678L413.9766 597.2507L413.9766 597.2507L435.5876 575.6398C 437.8857 573.3417 437.3112 572.8555 431.4775 568.0825z" stroke="none" fill="#4055FF" fill-rule="evenodd" fill-opacity="0.2980392" /><path transform="matrix(1 0 0 -1 0 843)" d="" stroke="none" fill="#4055FF" fill-rule="evenodd" fill-opacity="0.2980392" /><path transform="matrix(1 0 0 -1 0 843)" d="" stroke="none" fill="#4055FF" fill-rule="evenodd" fill-opacity="0.2980392" /><path transform="matrix(1 0 0 -1 0 843)" d="M205.2088 301.1438L209.7166 305.6516L209.7166 305.6516L210.5121 304.8561L210.5121 304.8561L209.9818 304.3258C 209.2747 303.6187 209.2305 302.6022 210.1143 301.0112L210.1143 301.0112L219.3951 285.3665L219.3951 285.3665L218.5996 284.571L218.5996 284.571L206.1369 292.2608L206.1369 292.2608L213.6941 279.6654L213.6941 279.6654L212.8986 278.8699L212.8986 278.8699L197.6516 288.0181C 196.2374 289.0788 194.8673 289.2114 194.337 288.681L194.337 288.681L193.8067 288.1507L193.8067 288.1507L193.0112 288.9462L193.0112 288.9462L197.7841 293.7192L197.7841 293.7192L198.5797 292.9237L198.5797 292.9237L198.0493 292.3933C 197.3422 291.6862 197.8725 290.8907 199.11 290.0069L199.11 290.0069L209.7166 283.3777L209.7166 283.3777L209.9818 283.6429L209.9818 283.6429L204.0155 293.5866C 202.2478 295.0008 200.8777 295.2218 200.1706 294.5147L200.1706 294.5147L199.7729 294.1169L199.7729 294.1169L198.9774 294.9124L198.9774 294.9124L203.4852 299.4202L203.4852 299.4202L204.2807 298.6247L204.2807 298.6247L203.883 298.227C 203.1758 297.5199 203.7062 296.7244 204.9436 295.8405L204.9436 295.8405L215.5502 289.2114L215.5502 289.2114L215.6828 289.3439L215.6828 289.3439L208.6559 300.8786C 208.1256 301.7625 207.3743 301.7183 206.6672 301.0112L206.6672 301.0112L206.0043 300.3483z" stroke="none" fill="#4055FF" fill-rule="evenodd" fill-opacity="0.2980392" /><path transform="matrix(1 0 0 -1 0 843)" d="M222.1794 318.1144L226.6872 322.6222L226.6872 322.6222L227.4827 321.8267L227.4827 321.8267L226.9523 321.2964C 226.2452 320.5893 226.201 319.5728 227.0849 317.9818L227.0849 317.9818L236.3657 302.337L236.3657 302.337L235.5702 301.5416L235.5702 301.5416L223.1074 309.2314L223.1074 309.2314L230.6646 296.636L230.6646 296.636L229.8692 295.8405L229.8692 295.8405L214.6221 304.9887C 213.2079 306.0493 211.8379 306.1819 211.3076 305.6516L211.3076 305.6516L210.7773 305.1213L210.7773 305.1213L209.9818 305.9168L209.9818 305.9168L214.7547 310.6898L214.7547 310.6898L215.5502 309.8943L215.5502 309.8943L215.0199 309.3639C 214.3128 308.6568 214.8431 307.8613 216.0806 306.9774L216.0806 306.9774L226.6872 300.3483L226.6872 300.3483L226.9523 300.6135L226.9523 300.6135L220.9861 310.5572C 219.2184 311.9714 217.8483 312.1924 217.1412 311.4852L217.1412 311.4852L216.7435 311.0875L216.7435 311.0875L215.948 311.883L215.948 311.883L220.4558 316.3908L220.4558 316.3908L221.2513 315.5953L221.2513 315.5953L220.8535 315.1976C 220.1464 314.4904 220.6768 313.6949 221.9142 312.8111L221.9142 312.8111L232.5208 306.1819L232.5208 306.1819L232.6534 306.3145L232.6534 306.3145L225.6265 317.8492C 225.0962 318.7331 224.3449 318.6889 223.6378 317.9818L223.6378 317.9818L222.9749 317.3189z" stroke="none" fill="#4055FF" fill-rule="evenodd" fill-opacity="0.2980392" /><path transform="matrix(1 0 0 -1 0 843)" d="M239.1499 335.085L243.6577 339.5928L243.6577 339.5928L244.4532 338.7973L244.4532 338.7973L243.9229 338.2669C 243.2158 337.5598 243.1716 336.5434 244.0555 334.9524L244.0555 334.9524L253.3363 319.3076L253.3363 319.3076L252.5408 318.5121L252.5408 318.5121L240.078 326.2019L240.078 326.2019L247.6352 313.6066L247.6352 313.6066L246.8397 312.8111L246.8397 312.8111L231.5927 321.9593C 230.1785 323.0199 228.8085 323.1525 228.2782 322.6222L228.2782 322.6222L227.7478 322.0919L227.7478 322.0919L226.9523 322.8874L226.9523 322.8874L231.7253 327.6603L231.7253 327.6603L232.5208 326.8648L232.5208 326.8648L231.9905 326.3345C 231.2834 325.6274 231.8137 324.8319 233.0511 323.948L233.0511 323.948L243.6578 317.3189L243.6578 317.3189L243.9229 317.584L243.9229 317.584L237.9567 327.5277C 236.1889 328.942 234.8189 329.1629 234.1118 328.4558L234.1118 328.4558L233.7141 328.0581L233.7141 328.0581L232.9185 328.8536L232.9185 328.8536L237.4264 333.3614L237.4264 333.3614L238.2219 332.5659L238.2219 332.5659L237.8241 332.1682C 237.117 331.461 237.6473 330.6655 238.8848 329.7816L238.8848 329.7816L249.4914 323.1525L249.4914 323.1525L249.624 323.2851L249.624 323.2851L242.5971 334.8198C 242.0668 335.7037 241.3155 335.6595 240.6084 334.9524L240.6084 334.9524L239.9454 334.2895z" stroke="none" fill="#4055FF" fill-rule="evenodd" fill-opacity="0.2980392" /><path transform="matrix(1 0 0 -1 0 843)" d="M263.28 328.721C 262.2193 327.6603 260.5399 327.4836 259.3025 328.721C 258.0651 329.9584 258.2418 331.6378 259.3025 332.6985C 260.3632 333.7591 262.2193 333.7591 263.28 332.6985C 264.5174 331.461 264.3406 329.7816 263.28 328.721z" stroke="none" fill="#4055FF" fill-rule="evenodd" fill-opacity="0.2980392" /><path transform="matrix(1 0 0 -1 0 843)" d="M264.4732 364.916C 260.7609 368.6284 261.6448 373.2246 264.4732 376.053C 267.4785 379.0582 270.2185 379.3234 271.6327 377.9092C 272.3398 377.2021 272.6934 376.3182 271.6327 375.2575C 270.9256 374.5504 270.1301 374.3736 269.2462 375.2575C 269.0694 375.4343 268.7601 376.0088 268.5833 376.1856C 267.8762 376.8927 267.0807 377.0695 265.1361 375.1249C 263.0148 373.0036 262.7496 370.3519 265.9316 367.17L265.9316 367.17L268.5833 364.5183L268.5833 364.5183L274.1518 370.0868L274.1518 370.0868L274.9473 369.2913L274.9473 369.2913L269.3788 363.7228L269.3788 363.7228L281.5764 351.5252C 282.2835 350.8181 283.1232 350.9507 283.8303 351.6578L283.8303 351.6578L287.0123 354.8398L287.0123 354.8398L287.8078 354.0443L287.8078 354.0443L278.1292 344.3657L278.1292 344.3657L277.3337 345.1613L277.3337 345.1613L279.5876 347.4152C 280.4716 348.299 280.4273 348.9619 279.7202 349.6691L279.7202 349.6691L267.5226 361.8666L267.5226 361.8666L263.4126 357.7566L263.4126 357.7566L262.6171 358.5521L262.6171 358.5521L266.7271 362.6621z" stroke="none" fill="#4055FF" fill-rule="evenodd" fill-opacity="0.2980392" /><path transform="matrix(1 0 0 -1 0 843)" d="M284.891 373.1362C 282.2393 375.7878 283.1232 379.5885 285.9516 382.417C 287.5426 384.008 289.7965 384.936 290.3268 385.4664C 290.8572 385.9967 290.9897 386.3944 290.9897 387.4551L290.9897 387.4551L295.8953 383.6102L295.8953 383.6102L295.2324 382.6821C 292.2272 384.2731 289.001 383.8754 286.8797 381.7541C 284.5816 379.456 284.0955 377.1136 285.6865 375.5227C 287.1006 374.1085 288.3823 373.8875 290.3268 375.1249C 292.0946 375.832 294.7905 377.2904 297.0886 378.1743C 299.2099 378.8814 301.508 378.793 302.9222 377.3788C 305.5739 374.7272 305.2645 371.2358 301.7289 367.7003C 299.4308 365.4022 297.7957 365.0928 297.0886 364.3857C 296.5582 363.8554 296.2489 362.9273 295.8953 361.8667L295.8953 361.8667L290.592 366.3745L290.592 366.3745L291.2549 367.3026C 294.6137 365.0045 297.7515 365.3138 300.9335 368.4958C 303.4083 370.9707 303.8945 373.2245 302.1267 374.9923C 300.8893 376.2298 299.2099 376.1414 298.1492 375.7878C 295.6743 374.7272 292.4924 373.2246 290.1943 372.3407C 287.8962 371.4568 286.1284 371.8987 284.891 373.1362z" stroke="none" fill="#4055FF" fill-rule="evenodd" fill-opacity="0.2980392" /><path transform="matrix(1 0 0 -1 0 843)" d="M305.5739 393.2888C 304.5132 397.8849 305.0435 401.5089 307.1649 403.6302C 308.9326 405.3979 310.8771 405.4864 311.9378 404.4257C 312.8217 403.5418 312.9543 402.5253 312.0704 401.6414C 311.1865 400.7576 310.1259 400.8459 309.4188 401.9066C 308.8884 402.437 308.4465 402.7905 307.5626 401.9066C 306.1484 400.4924 305.7064 396.3381 307.2974 391.5652L307.2974 391.5652L314.4569 384.4057C 315.164 383.6986 316.0037 383.8312 316.7108 384.5383L316.7108 384.5383L319.6276 387.4551L319.6276 387.4551L320.4231 386.6596L320.4231 386.6596L310.612 376.8485L310.612 376.8485L309.8165 377.644L309.8165 377.644L312.4681 380.2957C 313.3521 381.1795 313.3079 381.8424 312.6007 382.5496L312.6007 382.5496L301.5964 393.5539C 300.8893 394.261 300.0938 394.4378 299.2099 393.5539L299.2099 393.5539L296.6908 391.0349L296.6908 391.0349L295.8953 391.8303L295.8953 391.8303L296.956 392.891C 298.1934 394.1284 299.8728 396.4265 300.4031 397.664L300.4031 397.664L300.8009 398.0617z" stroke="none" fill="#4055FF" fill-rule="evenodd" fill-opacity="0.2980392" /><path transform="matrix(1 0 0 -1 0 843)" d="M331.1623 396.6033C 330.1016 395.5427 328.4222 395.3659 327.1848 396.6033C 325.9474 397.8408 326.1241 399.5201 327.1848 400.5808C 328.2455 401.6414 330.1016 401.6414 331.1623 400.5808C 332.3997 399.3434 332.223 397.664 331.1623 396.6033z" stroke="none" fill="#4055FF" fill-rule="evenodd" fill-opacity="0.2980392" /><path transform="matrix(1 0 0 -1 0 843)" d="M351.4474 432.5332C 355.8669 428.1138 356.132 421.8382 352.2429 417.9491C 348.1771 413.8832 341.9015 414.502 337.6588 418.7446C 333.7698 422.6337 332.7975 429.2628 336.8633 433.3287C 341.106 437.5714 347.5583 436.4223 351.4474 432.5332zM339.9128 420.7333C 344.509 416.1371 348.7958 416.093 351.4474 418.7446C 354.4526 421.7498 353.7014 426.0367 349.4587 430.2793C 344.8625 434.8755 340.3105 435.1849 337.6589 432.5332C 335.184 430.0583 335.3166 425.3295 339.9128 420.7333z" stroke="none" fill="#4055FF" fill-rule="evenodd" fill-opacity="0.2980392" /><path transform="matrix(1 0 0 -1 0 843)" d="M356.4856 444.2005C 355.4249 448.7967 355.9553 452.4206 358.0766 454.5419C 359.8444 456.3097 361.7889 456.3981 362.8495 455.3374C 363.7335 454.4536 363.866 453.4371 362.9821 452.5532C 362.0983 451.6693 361.0376 451.7577 360.3305 452.8184C 359.8002 453.3487 359.3582 453.7022 358.4743 452.8184C 357.0601 451.4041 356.6182 447.2499 358.2092 442.4769L358.2092 442.4769L365.3687 435.3174C 366.0757 434.6104 366.9154 434.7429 367.6225 435.45L367.6225 435.45L370.5394 438.3669L370.5394 438.3669L371.3348 437.5714L371.3348 437.5714L361.5237 427.7602L361.5237 427.7602L360.7282 428.5557L360.7282 428.5557L363.3799 431.2074C 364.2637 432.0912 364.2196 432.7542 363.5125 433.4613L363.5125 433.4613L352.5081 444.4656C 351.801 445.1728 351.0055 445.3495 350.1216 444.4656L350.1216 444.4656L347.6025 441.9466L347.6025 441.9466L346.8071 442.7421L346.8071 442.7421L347.8677 443.8027C 349.1052 445.0402 350.7845 447.3383 351.3149 448.5757L351.3149 448.5757L351.7126 448.9734z" stroke="none" fill="#4055FF" fill-rule="evenodd" fill-opacity="0.2980392" /><path transform="matrix(1 0 0 -1 0 843)" d="M372.1304 458.2542C 374.2516 456.1329 377.3011 455.7352 379.4224 457.8565C 381.7205 460.1546 381.4995 462.6736 379.0247 465.1485C 376.0194 468.1537 373.2794 467.8886 371.3348 465.944C 369.3903 463.9995 369.1251 461.2595 372.1304 458.2542zM385.7864 457.5913C 388.7916 459.8894 391.1339 459.9336 393.0784 457.9891C 395.73 455.3374 395.3323 451.4925 390.5593 446.7195C 386.847 443.0072 382.5602 442.2559 380.6156 444.2005C 379.3782 445.4379 378.8478 447.6476 380.0853 450.2993C 378.4943 449.769 377.2568 449.6805 376.373 450.5645C 375.3123 451.6251 375.3123 453.2161 375.8427 454.8071C 373.8981 454.6303 371.6884 454.9839 370.2742 456.3981C 367.6226 459.0497 367.1806 463.3808 370.5394 466.7395C 371.9536 468.1537 373.6771 469.2586 375.4449 469.2586C 375.7985 471.3799 376.3288 472.7941 377.0359 473.5013C 377.9198 474.3851 379.0247 473.899 379.555 473.3687C 380.2621 472.6616 380.5272 471.9545 379.8201 471.2473C 379.2898 470.717 378.6711 470.6286 377.964 470.9822C 377.2569 471.3357 376.6824 470.496 376.5056 469.2586C 377.9198 469.2586 379.6434 468.2421 380.8808 467.0047C 383.0021 464.8834 383.9302 460.7733 380.2179 457.061C 379.1572 456.0004 377.9198 455.3816 377.0359 455.2048C 376.6823 454.1442 376.9475 453.1719 377.3011 452.8184C 378.0082 452.1113 378.7153 452.1112 379.4224 452.8184C 382.074 454.7629 384.1954 456.3539 385.7864 457.5913zM381.4111 451.0948C 380.5272 448.7967 380.925 447.3383 382.3392 445.9241C 383.7534 444.5098 386.847 444.5982 390.029 447.7802C 393.0342 450.7854 393.9623 453.6581 392.0178 455.6026C 390.7803 456.84 389.6312 457.1052 388.5706 456.3981C 386.4493 454.9839 384.0627 453.0393 381.4111 451.0948z" stroke="none" fill="#4055FF" fill-rule="evenodd" fill-opacity="0.2980392" /><path transform="matrix(1 0 0 -1 0 843)" d="M399.0446 464.4856C 397.9839 463.425 396.3046 463.2482 395.0671 464.4856C 393.8297 465.7231 394.0065 467.4024 395.0671 468.4631C 396.1278 469.5238 397.9839 469.5238 399.0446 468.4631C 400.282 467.2257 400.1053 465.5463 399.0446 464.4856z" stroke="none" fill="#4055FF" fill-rule="evenodd" fill-opacity="0.2980392" /><path transform="matrix(1 0 0 -1 0 843)" d="M411.5074 500.283C 410.9771 500.8133 411.0654 500.9017 410.7119 501.6088C 410.1816 502.4926 408.0602 502.9346 405.9389 500.8133C 403.2873 498.1616 403.9502 493.2561 408.1928 489.0134C 412.0819 485.1243 416.1478 483.9753 419.8601 487.6876C 422.335 490.1625 422.2024 493.7422 420.7881 496.5706L420.7881 496.5706L421.7162 496.9684C 423.6608 493.6096 423.8818 489.588 420.523 486.2292C 416.2803 481.9865 410.8887 482.0749 405.9389 487.0247C 401.5195 491.4441 401.166 497.6313 405.4086 501.8739C 408.4138 504.8792 412.1703 504.6582 413.7613 503.0672C 414.822 502.0065 414.7778 501.1668 413.8939 500.283C 413.1868 499.5758 412.2145 499.5758 411.5074 500.283z" stroke="none" fill="#4055FF" fill-rule="evenodd" fill-opacity="0.2980392" /><path transform="matrix(1 0 0 -1 0 843)" d="M429.4061 495.6425L428.6105 496.438L428.6105 496.438L429.2734 497.101C 430.1573 497.9849 430.1132 498.6478 429.4061 499.3549L429.4061 499.3549L418.004 510.757C 417.4736 511.2873 417.0759 511.4199 416.5455 510.8896L416.5455 510.8896L415.4849 509.8289L415.4849 509.8289L414.6894 510.6244L414.6894 510.6244L415.6174 511.5525C 416.5013 512.4363 417.1642 513.3644 417.341 514.6019L417.341 514.6019L417.6062 514.8671L417.6062 514.8671L420.6556 511.8176C 420.4788 515.1764 421.1417 517.6071 422.9095 519.3748C 425.9147 522.3801 428.8757 522.1591 432.0577 518.9771L432.0577 518.9771L440.543 510.4918C 441.2501 509.7847 442.0898 509.9173 442.7969 510.6244L442.7969 510.6244L443.4598 511.2873L443.4598 511.2873L444.2553 510.4918L444.2553 510.4918L438.6868 504.9233L438.6868 504.9233L437.8914 505.7188L437.8914 505.7188L438.5543 506.3817C 439.4381 507.2656 439.3939 507.9285 438.6868 508.6357L438.6868 508.6357L429.8038 517.5187C 427.6824 519.64 425.6053 519.9493 423.8376 518.1816C 422.2466 516.5906 421.5837 513.718 422.114 510.3592L422.114 510.3592L431.2622 501.211C 431.9693 500.5039 432.809 500.6365 433.5161 501.3436L433.5161 501.3436L434.179 502.0065L434.179 502.0065L434.9745 501.211z" stroke="none" fill="#4055FF" fill-rule="evenodd" fill-opacity="0.2980392" /></g><g clip-path="url(#3)"></g><g clip-path="url(#4)"></g></g></g></g></svg>