<svg xmlns="http://www.w3.org/2000/svg" xmlns:xlink="http://www.w3.org/1999/xlink" id="body_1" preserveAspectRatio="xMinYMin meet" viewBox="0 0 793 1124"><defs><clipPath id="1"><path d="M0 843L0 -0.3599854L0 -0.3599854L595.2 -0.3599854L595.2 -0.3599854L595.2 843L595.2 843L0 843z" /></clipPath><clipPath id="2"><path d="M72 85.58398L345 85.58398L345 85.58398L345 71.64001L345 71.64001L72 71.64001z" /></clipPath><clipPath id="3"><path d="M72 85.58405L345 85.58405L345 85.58405L345 71.64001L345 71.64001L72 71.64001z" /></clipPath></defs><g transform="matrix(1.333333 0 0 1.333333 0 0)"><g><g clip-path="url(#1)"><g transform="matrix(0.24 0 0 0.24 0 -0.3599854)"><g transform="matrix(1 0 0 1 0 0)"><image x="0" y="0" xlink:href="img_01.png" width="2480" height="3514" /></g></g><g clip-path="url(#2)"><g clip-path="url(#3)"></g></g></g></g></g></svg>